<svg width="545" height="539" viewBox="0 0 545 539" fill="none" xmlns="http://www.w3.org/2000/svg">
<rect x="451.269" y="1.35931" width="118.101" height="636.268" transform="rotate(45 451.269 1.35931)" fill="#E72929" stroke="black"/>
<mask id="path-2-inside-1_32_55" fill="white">
<path d="M108.8 380.154L156.453 427.807L144.846 439.415L116.267 410.836L134.188 450.072L124.82 459.44L85.4486 441.519L114.095 470.166L102.487 481.773L54.8337 434.12L68.5459 420.408L114.909 440.026L95.1557 393.798L108.8 380.154ZM187.813 397.398C183.333 401.878 178.174 404.955 172.336 406.63C166.543 408.259 160.683 408.327 154.754 406.833C148.826 405.25 143.531 402.127 138.87 397.466C134.209 392.804 131.109 387.532 129.57 381.649C128.076 375.721 128.144 369.86 129.774 364.068C131.448 358.23 134.525 353.071 139.006 348.591C143.486 344.11 148.622 341.056 154.415 339.426C160.253 337.752 166.091 337.707 171.928 339.291C177.812 340.829 183.084 343.929 187.745 348.591C192.406 353.252 195.529 358.547 197.113 364.475C198.651 370.358 198.606 376.196 196.977 381.989C195.348 387.781 192.293 392.918 187.813 397.398ZM177.223 386.808C181.025 383.007 182.79 378.708 182.518 373.911C182.292 369.068 180.097 364.565 175.933 360.402C171.725 356.193 167.222 353.998 162.425 353.817C157.628 353.546 153.329 355.311 149.527 359.112C145.681 362.959 143.848 367.281 144.029 372.078C144.255 376.83 146.495 381.332 150.749 385.586C154.958 389.795 159.461 392.035 164.258 392.307C169.055 392.488 173.377 390.655 177.223 386.808ZM260.795 323.465L249.187 335.073L200.38 325.094L229.773 354.487L218.165 366.095L170.512 318.442L182.12 306.834L231.063 316.948L201.534 287.42L213.142 275.812L260.795 323.465ZM292.222 292.989C287.741 297.469 282.582 300.547 276.744 302.221C270.952 303.85 265.091 303.918 259.163 302.425C253.235 300.841 247.94 297.718 243.279 293.057C238.617 288.396 235.517 283.124 233.979 277.24C232.485 271.312 232.553 265.452 234.182 259.659C235.857 253.821 238.934 248.662 243.414 244.182C247.895 239.702 253.031 236.647 258.824 235.018C264.661 233.343 270.499 233.298 276.337 234.882C282.22 236.421 287.492 239.521 292.154 244.182C296.815 248.843 299.938 254.138 301.521 260.066C303.06 265.949 303.015 271.787 301.386 277.58C299.757 283.372 296.702 288.509 292.222 292.989ZM281.632 282.399C285.433 278.598 287.198 274.299 286.927 269.502C286.701 264.66 284.506 260.157 280.342 255.993C276.134 251.785 271.631 249.59 266.834 249.409C262.037 249.137 257.737 250.902 253.936 254.704C250.089 258.55 248.257 262.872 248.438 267.669C248.664 272.421 250.904 276.924 255.158 281.178C259.367 285.386 263.869 287.626 268.666 287.898C273.463 288.079 277.785 286.246 281.632 282.399ZM326.579 193.057C329.34 195.818 331.24 198.986 332.281 202.561C333.277 206.091 333.164 209.87 331.942 213.897C330.72 217.925 328.163 221.885 324.271 225.777L317.076 232.972L334.182 250.079L322.574 261.686L274.921 214.033L293.724 195.23C297.525 191.428 301.395 188.871 305.332 187.559C309.269 186.247 313.048 186.088 316.668 187.084C320.289 188.079 323.592 190.071 326.579 193.057ZM314.157 217.427C316.374 215.21 317.505 213.037 317.551 210.91C317.596 208.783 316.668 206.77 314.768 204.869C312.867 202.968 310.853 202.041 308.726 202.086C306.599 202.131 304.427 203.262 302.209 205.48L295.896 211.793L307.844 223.74L314.157 217.427ZM387.946 197.265C383.466 201.745 378.307 204.822 372.469 206.497C366.676 208.126 360.816 208.194 354.888 206.7C348.959 205.116 343.664 201.994 339.003 197.332C334.342 192.671 331.242 187.399 329.703 181.516C328.21 175.587 328.278 169.727 329.907 163.934C331.581 158.096 334.659 152.937 339.139 148.457C343.619 143.977 348.756 140.922 354.548 139.293C360.386 137.619 366.224 137.573 372.062 139.157C377.945 140.696 383.217 143.796 387.878 148.457C392.54 153.118 395.662 158.413 397.246 164.342C398.785 170.225 398.739 176.063 397.11 181.855C395.481 187.648 392.426 192.784 387.946 197.265ZM377.357 186.675C381.158 182.874 382.923 178.574 382.651 173.777C382.425 168.935 380.23 164.432 376.067 160.269C371.858 156.06 367.355 153.865 362.558 153.684C357.761 153.413 353.462 155.178 349.661 158.979C345.814 162.826 343.981 167.147 344.162 171.944C344.388 176.696 346.629 181.199 350.882 185.453C355.091 189.662 359.594 191.902 364.391 192.173C369.188 192.354 373.51 190.522 377.357 186.675ZM420.946 145.393L436.152 130.188L445.112 139.148L418.299 165.962L370.645 118.308L382.253 106.701L420.946 145.393ZM443.86 45.0932L459.27 93.4933L475.018 109.242L463.411 120.85L447.662 105.101L399.262 89.6919L412.431 76.5227L441.62 87.2481L430.827 58.1266L443.86 45.0932Z"/>
</mask>
<path d="M108.8 380.154L156.453 427.807L144.846 439.415L116.267 410.836L134.188 450.072L124.82 459.44L85.4486 441.519L114.095 470.166L102.487 481.773L54.8337 434.12L68.5459 420.408L114.909 440.026L95.1557 393.798L108.8 380.154ZM187.813 397.398C183.333 401.878 178.174 404.955 172.336 406.63C166.543 408.259 160.683 408.327 154.754 406.833C148.826 405.25 143.531 402.127 138.87 397.466C134.209 392.804 131.109 387.532 129.57 381.649C128.076 375.721 128.144 369.86 129.774 364.068C131.448 358.23 134.525 353.071 139.006 348.591C143.486 344.11 148.622 341.056 154.415 339.426C160.253 337.752 166.091 337.707 171.928 339.291C177.812 340.829 183.084 343.929 187.745 348.591C192.406 353.252 195.529 358.547 197.113 364.475C198.651 370.358 198.606 376.196 196.977 381.989C195.348 387.781 192.293 392.918 187.813 397.398ZM177.223 386.808C181.025 383.007 182.79 378.708 182.518 373.911C182.292 369.068 180.097 364.565 175.933 360.402C171.725 356.193 167.222 353.998 162.425 353.817C157.628 353.546 153.329 355.311 149.527 359.112C145.681 362.959 143.848 367.281 144.029 372.078C144.255 376.83 146.495 381.332 150.749 385.586C154.958 389.795 159.461 392.035 164.258 392.307C169.055 392.488 173.377 390.655 177.223 386.808ZM260.795 323.465L249.187 335.073L200.38 325.094L229.773 354.487L218.165 366.095L170.512 318.442L182.12 306.834L231.063 316.948L201.534 287.42L213.142 275.812L260.795 323.465ZM292.222 292.989C287.741 297.469 282.582 300.547 276.744 302.221C270.952 303.85 265.091 303.918 259.163 302.425C253.235 300.841 247.94 297.718 243.279 293.057C238.617 288.396 235.517 283.124 233.979 277.24C232.485 271.312 232.553 265.452 234.182 259.659C235.857 253.821 238.934 248.662 243.414 244.182C247.895 239.702 253.031 236.647 258.824 235.018C264.661 233.343 270.499 233.298 276.337 234.882C282.22 236.421 287.492 239.521 292.154 244.182C296.815 248.843 299.938 254.138 301.521 260.066C303.06 265.949 303.015 271.787 301.386 277.58C299.757 283.372 296.702 288.509 292.222 292.989ZM281.632 282.399C285.433 278.598 287.198 274.299 286.927 269.502C286.701 264.66 284.506 260.157 280.342 255.993C276.134 251.785 271.631 249.59 266.834 249.409C262.037 249.137 257.737 250.902 253.936 254.704C250.089 258.55 248.257 262.872 248.438 267.669C248.664 272.421 250.904 276.924 255.158 281.178C259.367 285.386 263.869 287.626 268.666 287.898C273.463 288.079 277.785 286.246 281.632 282.399ZM326.579 193.057C329.34 195.818 331.24 198.986 332.281 202.561C333.277 206.091 333.164 209.87 331.942 213.897C330.72 217.925 328.163 221.885 324.271 225.777L317.076 232.972L334.182 250.079L322.574 261.686L274.921 214.033L293.724 195.23C297.525 191.428 301.395 188.871 305.332 187.559C309.269 186.247 313.048 186.088 316.668 187.084C320.289 188.079 323.592 190.071 326.579 193.057ZM314.157 217.427C316.374 215.21 317.505 213.037 317.551 210.91C317.596 208.783 316.668 206.77 314.768 204.869C312.867 202.968 310.853 202.041 308.726 202.086C306.599 202.131 304.427 203.262 302.209 205.48L295.896 211.793L307.844 223.74L314.157 217.427ZM387.946 197.265C383.466 201.745 378.307 204.822 372.469 206.497C366.676 208.126 360.816 208.194 354.888 206.7C348.959 205.116 343.664 201.994 339.003 197.332C334.342 192.671 331.242 187.399 329.703 181.516C328.21 175.587 328.278 169.727 329.907 163.934C331.581 158.096 334.659 152.937 339.139 148.457C343.619 143.977 348.756 140.922 354.548 139.293C360.386 137.619 366.224 137.573 372.062 139.157C377.945 140.696 383.217 143.796 387.878 148.457C392.54 153.118 395.662 158.413 397.246 164.342C398.785 170.225 398.739 176.063 397.11 181.855C395.481 187.648 392.426 192.784 387.946 197.265ZM377.357 186.675C381.158 182.874 382.923 178.574 382.651 173.777C382.425 168.935 380.23 164.432 376.067 160.269C371.858 156.06 367.355 153.865 362.558 153.684C357.761 153.413 353.462 155.178 349.661 158.979C345.814 162.826 343.981 167.147 344.162 171.944C344.388 176.696 346.629 181.199 350.882 185.453C355.091 189.662 359.594 191.902 364.391 192.173C369.188 192.354 373.51 190.522 377.357 186.675ZM420.946 145.393L436.152 130.188L445.112 139.148L418.299 165.962L370.645 118.308L382.253 106.701L420.946 145.393ZM443.86 45.0932L459.27 93.4933L475.018 109.242L463.411 120.85L447.662 105.101L399.262 89.6919L412.431 76.5227L441.62 87.2481L430.827 58.1266L443.86 45.0932Z" fill="white"/>
<path d="M108.8 380.154L109.507 379.447L108.8 378.739L108.093 379.447L108.8 380.154ZM156.453 427.807L157.161 428.514L157.868 427.807L157.161 427.1L156.453 427.807ZM144.846 439.415L144.138 440.122L144.846 440.829L145.553 440.122L144.846 439.415ZM116.267 410.836L116.974 410.129L115.358 411.252L116.267 410.836ZM134.188 450.072L134.895 450.779L135.386 450.288L135.098 449.657L134.188 450.072ZM124.82 459.44L124.406 460.35L125.037 460.638L125.527 460.147L124.82 459.44ZM85.4486 441.519L85.8628 440.609L84.7415 442.226L85.4486 441.519ZM114.095 470.166L114.802 470.873L115.509 470.166L114.802 469.458L114.095 470.166ZM102.487 481.773L101.78 482.48L102.487 483.188L103.194 482.48L102.487 481.773ZM54.8337 434.12L54.1266 433.413L53.4195 434.12L54.1266 434.827L54.8337 434.12ZM68.5459 420.408L68.9356 419.487L68.3151 419.224L67.8388 419.701L68.5459 420.408ZM114.909 440.026L114.52 440.947L116.803 441.913L115.829 439.633L114.909 440.026ZM95.1557 393.798L94.4486 393.091L93.9704 393.569L94.2362 394.191L95.1557 393.798ZM108.8 380.154L108.093 380.861L155.746 428.514L156.453 427.807L157.161 427.1L109.507 379.447L108.8 380.154ZM156.453 427.807L155.746 427.1L144.138 438.708L144.846 439.415L145.553 440.122L157.161 428.514L156.453 427.807ZM144.846 439.415L145.553 438.708L116.974 410.129L116.267 410.836L115.56 411.544L144.138 440.122L144.846 439.415ZM116.267 410.836L115.358 411.252L133.278 450.488L134.188 450.072L135.098 449.657L117.177 410.421L116.267 410.836ZM134.188 450.072L133.481 449.365L124.113 458.733L124.82 459.44L125.527 460.147L134.895 450.779L134.188 450.072ZM124.82 459.44L125.235 458.53L85.8628 440.609L85.4486 441.519L85.0343 442.429L124.406 460.35L124.82 459.44ZM85.4486 441.519L84.7415 442.226L113.388 470.873L114.095 470.166L114.802 469.458L86.1557 440.812L85.4486 441.519ZM114.095 470.166L113.388 469.458L101.78 481.066L102.487 481.773L103.194 482.48L114.802 470.873L114.095 470.166ZM102.487 481.773L103.194 481.066L55.5408 433.413L54.8337 434.12L54.1266 434.827L101.78 482.48L102.487 481.773ZM54.8337 434.12L55.5408 434.827L69.253 421.115L68.5459 420.408L67.8388 419.701L54.1266 433.413L54.8337 434.12ZM68.5459 420.408L68.1562 421.329L114.52 440.947L114.909 440.026L115.299 439.105L68.9356 419.487L68.5459 420.408ZM114.909 440.026L115.829 439.633L96.0753 393.405L95.1557 393.798L94.2362 394.191L113.99 440.419L114.909 440.026ZM95.1557 393.798L95.8628 394.505L109.507 380.861L108.8 380.154L108.093 379.447L94.4486 393.091L95.1557 393.798ZM172.336 406.63L172.606 407.593L172.611 407.591L172.336 406.63ZM154.754 406.833L154.496 407.8L154.503 407.801L154.51 407.803L154.754 406.833ZM129.57 381.649L128.6 381.893L128.602 381.902L129.57 381.649ZM129.774 364.068L128.812 363.792L128.811 363.797L129.774 364.068ZM154.415 339.426L154.686 340.389L154.691 340.388L154.415 339.426ZM171.928 339.291L171.667 340.256L171.675 340.258L171.928 339.291ZM197.113 364.475L198.08 364.222L198.079 364.217L197.113 364.475ZM196.977 381.989L197.94 382.259L196.977 381.989ZM182.518 373.911L181.519 373.957L181.52 373.967L182.518 373.911ZM162.425 353.817L162.368 354.816L162.378 354.816L162.387 354.817L162.425 353.817ZM144.029 372.078L143.029 372.115L143.03 372.125L144.029 372.078ZM164.258 392.307L164.201 393.305L164.211 393.306L164.22 393.306L164.258 392.307ZM187.813 397.398L187.106 396.691C182.74 401.056 177.728 404.043 172.06 405.669L172.336 406.63L172.611 407.591C178.62 405.868 183.925 402.7 188.52 398.105L187.813 397.398ZM172.336 406.63L172.065 405.667C166.443 407.248 160.76 407.315 154.998 405.864L154.754 406.833L154.51 407.803C160.605 409.339 166.643 409.27 172.606 407.593L172.336 406.63ZM154.754 406.833L155.012 405.867C149.266 404.332 144.123 401.305 139.577 396.759L138.87 397.466L138.163 398.173C142.939 402.949 148.385 406.167 154.496 407.8L154.754 406.833ZM138.87 397.466L139.577 396.759C135.03 392.212 132.027 387.093 130.537 381.396L129.57 381.649L128.602 381.902C130.19 387.971 133.387 393.397 138.163 398.173L138.87 397.466ZM129.57 381.649L130.54 381.405C129.088 375.643 129.155 369.96 130.736 364.338L129.774 364.068L128.811 363.797C127.134 369.76 127.065 375.799 128.6 381.893L129.57 381.649ZM129.774 364.068L130.735 364.343C132.36 358.676 135.347 353.663 139.713 349.298L139.006 348.591L138.298 347.883C133.704 352.478 130.536 357.784 128.812 363.792L129.774 364.068ZM139.006 348.591L139.713 349.298C144.078 344.932 149.067 341.969 154.686 340.389L154.415 339.426L154.144 338.464C148.178 340.142 142.893 343.289 138.298 347.883L139.006 348.591ZM154.415 339.426L154.691 340.388C160.354 338.763 166.006 338.72 171.667 340.256L171.928 339.291L172.19 338.326C166.175 336.694 160.152 336.741 154.139 338.465L154.415 339.426ZM171.928 339.291L171.675 340.258C177.372 341.748 182.491 344.751 187.038 349.298L187.745 348.591L188.452 347.883C183.676 343.108 178.251 339.911 172.181 338.323L171.928 339.291ZM187.745 348.591L187.038 349.298C191.584 353.844 194.611 358.987 196.147 364.733L197.113 364.475L198.079 364.217C196.446 358.106 193.228 352.659 188.452 347.883L187.745 348.591ZM197.113 364.475L196.145 364.728C197.639 370.441 197.595 376.098 196.014 381.718L196.977 381.989L197.94 382.259C199.617 376.294 199.663 370.275 198.08 364.222L197.113 364.475ZM196.977 381.989L196.014 381.718C194.434 387.337 191.471 392.325 187.106 396.691L187.813 397.398L188.52 398.105C193.115 393.51 196.262 388.226 197.94 382.259L196.977 381.989ZM177.223 386.808L177.93 387.515C181.907 383.539 183.806 378.971 183.516 373.854L182.518 373.911L181.52 373.967C181.773 378.444 180.143 382.474 176.516 386.101L177.223 386.808ZM182.518 373.911L183.517 373.864C183.277 368.722 180.94 363.995 176.641 359.695L175.933 360.402L175.226 361.109C179.253 365.136 181.307 369.415 181.519 373.957L182.518 373.911ZM175.933 360.402L176.641 359.695C172.298 355.353 167.568 353.011 162.463 352.818L162.425 353.817L162.387 354.817C166.875 354.986 171.151 357.034 175.226 361.109L175.933 360.402ZM162.425 353.817L162.481 352.819C157.364 352.529 152.796 354.429 148.82 358.405L149.527 359.112L150.234 359.819C153.861 356.193 157.891 354.562 162.368 354.816L162.425 353.817ZM149.527 359.112L148.82 358.405C144.806 362.42 142.837 367.002 143.03 372.115L144.029 372.078L145.028 372.04C144.859 367.56 146.556 363.498 150.234 359.819L149.527 359.112ZM144.029 372.078L143.03 372.125C143.271 377.186 145.66 381.912 150.042 386.293L150.749 385.586L151.456 384.879C147.33 380.753 145.239 376.473 145.028 372.03L144.029 372.078ZM150.749 385.586L150.042 386.293C154.381 390.633 159.104 393.017 164.201 393.305L164.258 392.307L164.314 391.308C159.817 391.054 155.534 388.957 151.456 384.879L150.749 385.586ZM164.258 392.307L164.22 393.306C169.334 393.499 173.916 391.53 177.93 387.515L177.223 386.808L176.516 386.101C172.837 389.78 168.776 391.476 164.295 391.307L164.258 392.307ZM260.795 323.465L261.502 324.172L262.21 323.465L261.502 322.758L260.795 323.465ZM249.187 335.073L248.987 336.053L249.514 336.16L249.895 335.78L249.187 335.073ZM200.38 325.094L200.58 324.115L197.319 323.448L199.673 325.801L200.38 325.094ZM229.773 354.487L230.48 355.194L231.187 354.487L230.48 353.78L229.773 354.487ZM218.165 366.095L217.458 366.802L218.165 367.509L218.872 366.802L218.165 366.095ZM170.512 318.442L169.805 317.735L169.098 318.442L169.805 319.149L170.512 318.442ZM182.12 306.834L182.322 305.855L181.794 305.745L181.413 306.127L182.12 306.834ZM231.063 316.948L230.861 317.928L234.133 318.604L231.77 316.241L231.063 316.948ZM201.534 287.42L200.827 286.712L200.12 287.42L200.827 288.127L201.534 287.42ZM213.142 275.812L213.849 275.105L213.142 274.398L212.435 275.105L213.142 275.812ZM260.795 323.465L260.088 322.758L248.48 334.366L249.187 335.073L249.895 335.78L261.502 324.172L260.795 323.465ZM249.187 335.073L249.388 334.093L200.58 324.115L200.38 325.094L200.18 326.074L248.987 336.053L249.187 335.073ZM200.38 325.094L199.673 325.801L229.066 355.194L229.773 354.487L230.48 353.78L201.087 324.387L200.38 325.094ZM229.773 354.487L229.066 353.78L217.458 365.388L218.165 366.095L218.872 366.802L230.48 355.194L229.773 354.487ZM218.165 366.095L218.872 365.388L171.219 317.735L170.512 318.442L169.805 319.149L217.458 366.802L218.165 366.095ZM170.512 318.442L171.219 319.149L182.827 307.541L182.12 306.834L181.413 306.127L169.805 317.735L170.512 318.442ZM182.12 306.834L181.917 307.813L230.861 317.928L231.063 316.948L231.265 315.969L182.322 305.855L182.12 306.834ZM231.063 316.948L231.77 316.241L202.241 286.712L201.534 287.42L200.827 288.127L230.356 317.655L231.063 316.948ZM201.534 287.42L202.241 288.127L213.849 276.519L213.142 275.812L212.435 275.105L200.827 286.712L201.534 287.42ZM213.142 275.812L212.435 276.519L260.088 324.172L260.795 323.465L261.502 322.758L213.849 275.105L213.142 275.812ZM276.744 302.221L277.015 303.184L277.02 303.182L276.744 302.221ZM259.163 302.425L258.905 303.391L258.912 303.393L258.919 303.394L259.163 302.425ZM233.979 277.24L233.009 277.485L233.011 277.493L233.979 277.24ZM234.182 259.659L233.221 259.383L233.22 259.388L234.182 259.659ZM258.824 235.018L259.094 235.98L259.099 235.979L258.824 235.018ZM276.337 234.882L276.075 235.847L276.084 235.849L276.337 234.882ZM301.521 260.066L302.489 259.813L302.488 259.808L301.521 260.066ZM301.386 277.58L302.348 277.851L301.386 277.58ZM286.927 269.502L285.928 269.549L285.928 269.558L286.927 269.502ZM266.834 249.409L266.777 250.407L266.787 250.408L266.796 250.408L266.834 249.409ZM248.438 267.669L247.438 267.707L247.439 267.717L248.438 267.669ZM268.666 287.898L268.61 288.896L268.619 288.897L268.629 288.897L268.666 287.898ZM292.222 292.989L291.515 292.282C287.149 296.648 282.136 299.634 276.469 301.26L276.744 302.221L277.02 303.182C283.028 301.459 288.334 298.291 292.929 293.696L292.222 292.989ZM276.744 302.221L276.474 301.258C270.852 302.84 265.169 302.907 259.407 301.455L259.163 302.425L258.919 303.394C265.014 304.93 271.052 304.861 277.015 303.184L276.744 302.221ZM259.163 302.425L259.421 301.459C253.675 299.923 248.532 296.896 243.986 292.35L243.279 293.057L242.571 293.764C247.347 298.54 252.794 301.758 258.905 303.391L259.163 302.425ZM243.279 293.057L243.986 292.35C239.439 287.803 236.436 282.684 234.946 276.987L233.979 277.24L233.011 277.493C234.599 283.563 237.795 288.988 242.571 293.764L243.279 293.057ZM233.979 277.24L234.948 276.996C233.497 271.234 233.564 265.551 235.145 259.93L234.182 259.659L233.22 259.388C231.542 265.352 231.474 271.39 233.009 277.485L233.979 277.24ZM234.182 259.659L235.144 259.935C236.769 254.267 239.756 249.255 244.121 244.889L243.414 244.182L242.707 243.475C238.112 248.069 234.944 253.375 233.221 259.383L234.182 259.659ZM243.414 244.182L244.121 244.889C248.487 240.523 253.475 237.561 259.094 235.98L258.824 235.018L258.553 234.055C252.586 235.733 247.302 238.88 242.707 243.475L243.414 244.182ZM258.824 235.018L259.099 235.979C264.762 234.355 270.414 234.311 276.075 235.847L276.337 234.882L276.599 233.917C270.584 232.285 264.56 232.332 258.548 234.056L258.824 235.018ZM276.337 234.882L276.084 235.849C281.781 237.339 286.9 240.342 291.447 244.889L292.154 244.182L292.861 243.475C288.085 238.699 282.659 235.502 276.59 233.914L276.337 234.882ZM292.154 244.182L291.447 244.889C295.993 249.435 299.02 254.578 300.555 260.324L301.521 260.066L302.488 259.808C300.855 253.697 297.637 248.251 292.861 243.475L292.154 244.182ZM301.521 260.066L300.554 260.319C302.048 266.032 302.004 271.689 300.423 277.309L301.386 277.58L302.348 277.851C304.026 271.885 304.072 265.866 302.489 259.813L301.521 260.066ZM301.386 277.58L300.423 277.309C298.843 282.928 295.88 287.916 291.515 292.282L292.222 292.989L292.929 293.696C297.523 289.102 300.67 283.817 302.348 277.851L301.386 277.58ZM281.632 282.399L282.339 283.107C286.315 279.13 288.215 274.562 287.925 269.445L286.927 269.502L285.928 269.558C286.182 274.035 284.552 278.066 280.925 281.692L281.632 282.399ZM286.927 269.502L287.926 269.455C287.685 264.313 285.349 259.586 281.049 255.286L280.342 255.993L279.635 256.7C283.662 260.727 285.716 265.006 285.928 269.549L286.927 269.502ZM280.342 255.993L281.049 255.286C276.707 250.944 271.977 248.602 266.871 248.409L266.834 249.409L266.796 250.408C271.284 250.577 275.56 252.625 279.635 256.7L280.342 255.993ZM266.834 249.409L266.89 248.41C261.773 248.121 257.205 250.02 253.229 253.996L253.936 254.704L254.643 255.411C258.27 251.784 262.3 250.154 266.777 250.407L266.834 249.409ZM253.936 254.704L253.229 253.996C249.214 258.011 247.245 262.593 247.438 267.707L248.438 267.669L249.437 267.631C249.268 263.151 250.964 259.089 254.643 255.411L253.936 254.704ZM248.438 267.669L247.439 267.717C247.68 272.778 250.069 277.503 254.451 281.885L255.158 281.178L255.865 280.471C251.739 276.344 249.648 272.064 249.436 267.621L248.438 267.669ZM255.158 281.178L254.451 281.885C258.79 286.224 263.513 288.608 268.61 288.896L268.666 287.898L268.723 286.9C264.226 286.645 259.943 284.549 255.865 280.471L255.158 281.178ZM268.666 287.898L268.629 288.897C273.742 289.09 278.325 287.121 282.339 283.107L281.632 282.399L280.925 281.692C277.246 285.371 273.185 287.068 268.704 286.899L268.666 287.898ZM332.281 202.561L333.244 202.289L333.241 202.281L332.281 202.561ZM331.942 213.897L330.985 213.607L331.942 213.897ZM317.076 232.972L316.368 232.265L315.661 232.972L316.368 233.679L317.076 232.972ZM334.182 250.079L334.889 250.786L335.596 250.079L334.889 249.371L334.182 250.079ZM322.574 261.686L321.867 262.394L322.574 263.101L323.281 262.394L322.574 261.686ZM274.921 214.033L274.214 213.326L273.506 214.033L274.214 214.74L274.921 214.033ZM305.332 187.559L305.016 186.61L305.332 187.559ZM295.896 211.793L295.189 211.086L294.482 211.793L295.189 212.5L295.896 211.793ZM307.844 223.74L307.136 224.447L307.844 225.154L308.551 224.447L307.844 223.74ZM326.579 193.057L325.872 193.765C328.52 196.412 330.329 199.435 331.321 202.84L332.281 202.561L333.241 202.281C332.151 198.537 330.16 195.224 327.286 192.35L326.579 193.057ZM332.281 202.561L331.319 202.832C332.255 206.152 332.16 209.735 330.985 213.607L331.942 213.897L332.899 214.188C334.168 210.005 334.298 206.029 333.244 202.289L332.281 202.561ZM331.942 213.897L330.985 213.607C329.823 217.436 327.374 221.259 323.564 225.07L324.271 225.777L324.978 226.484C328.952 222.51 331.617 218.414 332.899 214.188L331.942 213.897ZM324.271 225.777L323.564 225.07L316.368 232.265L317.076 232.972L317.783 233.679L324.978 226.484L324.271 225.777ZM317.076 232.972L316.368 233.679L333.475 250.786L334.182 250.079L334.889 249.371L317.783 232.265L317.076 232.972ZM334.182 250.079L333.475 249.371L321.867 260.979L322.574 261.686L323.281 262.394L334.889 250.786L334.182 250.079ZM322.574 261.686L323.281 260.979L275.628 213.326L274.921 214.033L274.214 214.74L321.867 262.394L322.574 261.686ZM274.921 214.033L275.628 214.74L294.431 195.937L293.724 195.23L293.017 194.523L274.214 213.326L274.921 214.033ZM293.724 195.23L294.431 195.937C298.154 192.214 301.895 189.759 305.648 188.508L305.332 187.559L305.016 186.61C300.894 187.984 296.897 190.643 293.017 194.523L293.724 195.23ZM305.332 187.559L305.648 188.508C309.418 187.251 312.994 187.11 316.403 188.048L316.668 187.084L316.933 186.12C313.102 185.066 309.12 185.242 305.016 186.61L305.332 187.559ZM316.668 187.084L316.403 188.048C319.836 188.992 322.992 190.885 325.872 193.765L326.579 193.057L327.286 192.35C324.192 189.257 320.741 187.167 316.933 186.12L316.668 187.084ZM314.157 217.427L314.864 218.134C317.178 215.82 318.498 213.416 318.55 210.932L317.551 210.91L316.551 210.889C316.513 212.659 315.57 214.599 313.449 216.72L314.157 217.427ZM317.551 210.91L318.55 210.932C318.603 208.465 317.514 206.201 315.475 204.162L314.768 204.869L314.06 205.576C315.822 207.338 316.589 209.102 316.551 210.889L317.551 210.91ZM314.768 204.869L315.475 204.162C313.435 202.122 311.172 201.034 308.705 201.086L308.726 202.086L308.747 203.086C310.534 203.048 312.299 203.814 314.06 205.576L314.768 204.869ZM308.726 202.086L308.705 201.086C306.22 201.139 303.817 202.458 301.502 204.773L302.209 205.48L302.916 206.187C305.037 204.066 306.978 203.123 308.747 203.086L308.726 202.086ZM302.209 205.48L301.502 204.773L295.189 211.086L295.896 211.793L296.603 212.5L302.916 206.187L302.209 205.48ZM295.896 211.793L295.189 212.5L307.136 224.447L307.844 223.74L308.551 223.033L296.603 211.086L295.896 211.793ZM307.844 223.74L308.551 224.447L314.864 218.134L314.157 217.427L313.449 216.72L307.136 223.033L307.844 223.74ZM372.469 206.497L372.74 207.459L372.745 207.458L372.469 206.497ZM354.888 206.7L354.629 207.666L354.636 207.668L354.643 207.67L354.888 206.7ZM329.703 181.516L328.733 181.76L328.736 181.769L329.703 181.516ZM329.907 163.934L328.946 163.659L328.944 163.664L329.907 163.934ZM354.548 139.293L354.819 140.256L354.824 140.254L354.548 139.293ZM372.062 139.157L371.8 140.122L371.809 140.125L372.062 139.157ZM397.246 164.342L398.214 164.089L398.212 164.084L397.246 164.342ZM397.11 181.855L398.073 182.126L397.11 181.855ZM382.651 173.777L381.652 173.824L381.653 173.834L382.651 173.777ZM362.558 153.684L362.502 154.683L362.511 154.683L362.521 154.683L362.558 153.684ZM344.162 171.944L343.163 171.982L343.163 171.992L344.162 171.944ZM364.391 192.173L364.335 193.172L364.344 193.172L364.353 193.173L364.391 192.173ZM387.946 197.265L387.239 196.557C382.873 200.923 377.861 203.91 372.193 205.535L372.469 206.497L372.745 207.458C378.753 205.735 384.059 202.566 388.653 197.972L387.946 197.265ZM372.469 206.497L372.198 205.534C366.577 207.115 360.894 207.182 355.132 205.73L354.888 206.7L354.643 207.67C360.738 209.205 366.776 209.136 372.74 207.459L372.469 206.497ZM354.888 206.7L355.146 205.734C349.4 204.199 344.257 201.172 339.71 196.625L339.003 197.332L338.296 198.04C343.072 202.816 348.519 206.034 354.629 207.666L354.888 206.7ZM339.003 197.332L339.71 196.625C335.164 192.079 332.161 186.96 330.671 181.263L329.703 181.516L328.736 181.769C330.323 187.838 333.52 193.264 338.296 198.04L339.003 197.332ZM329.703 181.516L330.673 181.272C329.221 175.51 329.288 169.827 330.87 164.205L329.907 163.934L328.944 163.664C327.267 169.627 327.198 175.665 328.734 181.76L329.703 181.516ZM329.907 163.934L330.868 164.21C332.494 158.542 335.48 153.53 339.846 149.164L339.139 148.457L338.432 147.75C333.837 152.345 330.669 157.651 328.946 163.659L329.907 163.934ZM339.139 148.457L339.846 149.164C344.212 144.799 349.2 141.836 354.819 140.256L354.548 139.293L354.277 138.33C348.311 140.009 343.026 143.155 338.432 147.75L339.139 148.457ZM354.548 139.293L354.824 140.254C360.487 138.63 366.139 138.587 371.8 140.122L372.062 139.157L372.324 138.192C366.309 136.56 360.285 136.607 354.272 138.332L354.548 139.293ZM372.062 139.157L371.809 140.125C377.506 141.615 382.625 144.618 387.171 149.164L387.878 148.457L388.585 147.75C383.809 142.974 378.384 139.777 372.315 138.19L372.062 139.157ZM387.878 148.457L387.171 149.164C391.718 153.711 394.745 158.854 396.28 164.6L397.246 164.342L398.212 164.084C396.58 157.973 393.361 152.526 388.585 147.75L387.878 148.457ZM397.246 164.342L396.279 164.595C397.773 170.308 397.728 175.965 396.148 181.585L397.11 181.855L398.073 182.126C399.751 176.16 399.797 170.142 398.214 164.089L397.246 164.342ZM397.11 181.855L396.148 181.585C394.567 187.203 391.605 192.192 387.239 196.557L387.946 197.265L388.653 197.972C393.248 193.377 396.395 188.092 398.073 182.126L397.11 181.855ZM377.357 186.675L378.064 187.382C382.04 183.406 383.939 178.838 383.65 173.721L382.651 173.777L381.653 173.834C381.906 178.311 380.276 182.341 376.649 185.968L377.357 186.675ZM382.651 173.777L383.65 173.731C383.41 168.589 381.074 163.861 376.774 159.562L376.067 160.269L375.36 160.976C379.387 165.003 381.44 169.281 381.652 173.824L382.651 173.777ZM376.067 160.269L376.774 159.562C372.432 155.219 367.702 152.878 362.596 152.685L362.558 153.684L362.521 154.683C367.009 154.853 371.285 156.901 375.36 160.976L376.067 160.269ZM362.558 153.684L362.615 152.686C357.498 152.396 352.93 154.296 348.953 158.272L349.661 158.979L350.368 159.686C353.994 156.059 358.025 154.429 362.502 154.683L362.558 153.684ZM349.661 158.979L348.953 158.272C344.939 162.286 342.97 166.869 343.163 171.982L344.162 171.944L345.161 171.907C344.992 167.426 346.689 163.365 350.368 159.686L349.661 158.979ZM344.162 171.944L343.163 171.992C343.404 177.053 345.794 181.779 350.175 186.16L350.882 185.453L351.59 184.746C347.463 180.62 345.373 176.339 345.161 171.897L344.162 171.944ZM350.882 185.453L350.175 186.16C354.515 190.499 359.237 192.883 364.335 193.172L364.391 192.173L364.448 191.175C359.951 190.92 355.668 188.824 351.59 184.746L350.882 185.453ZM364.391 192.173L364.353 193.173C369.467 193.366 374.049 191.397 378.064 187.382L377.357 186.675L376.649 185.968C372.971 189.647 368.909 191.343 364.429 191.174L364.391 192.173ZM420.946 145.393L420.239 146.101L420.946 146.808L421.653 146.101L420.946 145.393ZM436.152 130.188L436.859 129.481L436.152 128.774L435.445 129.481L436.152 130.188ZM445.112 139.148L445.819 139.855L446.526 139.148L445.819 138.441L445.112 139.148ZM418.299 165.962L417.591 166.669L418.299 167.376L419.006 166.669L418.299 165.962ZM370.645 118.308L369.938 117.601L369.231 118.308L369.938 119.016L370.645 118.308ZM382.253 106.701L382.96 105.994L382.253 105.286L381.546 105.994L382.253 106.701ZM420.946 145.393L421.653 146.101L436.859 130.895L436.152 130.188L435.445 129.481L420.239 144.686L420.946 145.393ZM436.152 130.188L435.445 130.895L444.405 139.855L445.112 139.148L445.819 138.441L436.859 129.481L436.152 130.188ZM445.112 139.148L444.405 138.441L417.591 165.255L418.299 165.962L419.006 166.669L445.819 139.855L445.112 139.148ZM418.299 165.962L419.006 165.255L371.352 117.601L370.645 118.308L369.938 119.016L417.591 166.669L418.299 165.962ZM370.645 118.308L371.352 119.016L382.96 107.408L382.253 106.701L381.546 105.994L369.938 117.601L370.645 118.308ZM382.253 106.701L381.546 107.408L420.239 146.101L420.946 145.393L421.653 144.686L382.96 105.994L382.253 106.701ZM443.86 45.0932L444.813 44.7899L444.315 43.2245L443.153 44.3861L443.86 45.0932ZM459.27 93.4933L458.317 93.7967L458.391 94.0284L458.563 94.2004L459.27 93.4933ZM475.018 109.242L475.726 109.949L476.433 109.242L475.726 108.535L475.018 109.242ZM463.411 120.85L462.703 121.557L463.411 122.264L464.118 121.557L463.411 120.85ZM447.662 105.101L448.369 104.394L448.197 104.222L447.965 104.148L447.662 105.101ZM399.262 89.6919L398.555 88.9848L397.393 90.1464L398.958 90.6448L399.262 89.6919ZM412.431 76.5227L412.776 75.5841L412.176 75.3636L411.724 75.8156L412.431 76.5227ZM441.62 87.2481L441.275 88.1867L443.312 88.9351L442.558 86.9006L441.62 87.2481ZM430.827 58.1266L430.12 57.4195L429.667 57.8729L429.889 58.4741L430.827 58.1266ZM443.86 45.0932L442.908 45.3966L458.317 93.7967L459.27 93.4933L460.223 93.1899L444.813 44.7899L443.86 45.0932ZM459.27 93.4933L458.563 94.2004L474.311 109.949L475.018 109.242L475.726 108.535L459.977 92.7862L459.27 93.4933ZM475.018 109.242L474.311 108.535L462.703 120.143L463.411 120.85L464.118 121.557L475.726 109.949L475.018 109.242ZM463.411 120.85L464.118 120.143L448.369 104.394L447.662 105.101L446.955 105.808L462.703 121.557L463.411 120.85ZM447.662 105.101L447.965 104.148L399.565 88.739L399.262 89.6919L398.958 90.6448L447.359 106.054L447.662 105.101ZM399.262 89.6919L399.969 90.399L413.138 77.2298L412.431 76.5227L411.724 75.8156L398.555 88.9848L399.262 89.6919ZM412.431 76.5227L412.086 77.4614L441.275 88.1867L441.62 87.2481L441.965 86.3095L412.776 75.5841L412.431 76.5227ZM441.62 87.2481L442.558 86.9006L431.765 57.7791L430.827 58.1266L429.889 58.4741L440.683 87.5956L441.62 87.2481ZM430.827 58.1266L431.534 58.8337L444.568 45.8003L443.86 45.0932L443.153 44.3861L430.12 57.4195L430.827 58.1266Z" fill="black" mask="url(#path-2-inside-1_32_55)"/>
</svg>
