<svg width="74" height="145" viewBox="0 0 74 145" fill="none" xmlns="http://www.w3.org/2000/svg">
<rect x="0.925293" y="0.635681" width="71.7851" height="143.57" fill="#C7E6CF" stroke="black"/>
<rect x="1" y="36.8925" width="35.8925" height="71.7851" transform="rotate(-90 1 36.8925)" fill="#88D0FF" stroke="black"/>
<path d="M18.9154 106.07C18.2687 106.07 17.6787 105.92 17.1454 105.62C16.612 105.313 16.1887 104.89 15.8754 104.35C15.5687 103.803 15.4154 103.19 15.4154 102.51C15.4154 101.83 15.5687 101.22 15.8754 100.68C16.1887 100.133 16.612 99.71 17.1454 99.41C17.6787 99.1033 18.2687 98.95 18.9154 98.95C19.5687 98.95 20.162 99.1033 20.6954 99.41C21.2287 99.71 21.6487 100.13 21.9554 100.67C22.262 101.21 22.4154 101.823 22.4154 102.51C22.4154 103.197 22.262 103.81 21.9554 104.35C21.6487 104.89 21.2287 105.313 20.6954 105.62C20.162 105.92 19.5687 106.07 18.9154 106.07ZM18.9154 105.28C19.402 105.28 19.8387 105.167 20.2254 104.94C20.6187 104.713 20.9254 104.39 21.1454 103.97C21.372 103.55 21.4854 103.063 21.4854 102.51C21.4854 101.95 21.372 101.463 21.1454 101.05C20.9254 100.63 20.622 100.307 20.2354 100.08C19.8487 99.8533 19.4087 99.74 18.9154 99.74C18.422 99.74 17.982 99.8533 17.5954 100.08C17.2087 100.307 16.902 100.63 16.6754 101.05C16.4554 101.463 16.3454 101.95 16.3454 102.51C16.3454 103.063 16.4554 103.55 16.6754 103.97C16.902 104.39 17.2087 104.713 17.5954 104.94C17.9887 105.167 18.4287 105.28 18.9154 105.28ZM27.2867 106L25.6267 103.15H24.5267V106H23.6167V99.03H25.8667C26.3933 99.03 26.8367 99.12 27.1967 99.3C27.5633 99.48 27.8367 99.7233 28.0167 100.03C28.1967 100.337 28.2867 100.687 28.2867 101.08C28.2867 101.56 28.1467 101.983 27.8667 102.35C27.5933 102.717 27.18 102.96 26.6267 103.08L28.3767 106H27.2867ZM24.5267 102.42H25.8667C26.36 102.42 26.73 102.3 26.9767 102.06C27.2233 101.813 27.3467 101.487 27.3467 101.08C27.3467 100.667 27.2233 100.347 26.9767 100.12C26.7367 99.8933 26.3667 99.78 25.8667 99.78H24.5267V102.42ZM30.6107 99.03V106H29.7007V99.03H30.6107ZM33.0716 99.77V102.1H35.6116V102.85H33.0716V105.25H35.9116V106H32.1616V99.02H35.9116V99.77H33.0716ZM42.7686 106H41.8586L38.1986 100.45V106H37.2886V99.02H38.1986L41.8586 104.56V99.02H42.7686V106ZM48.6098 99.03V99.77H46.7098V106H45.7998V99.77H43.8898V99.03H48.6098ZM53.85 104.45H50.81L50.25 106H49.29L51.81 99.07H52.86L55.37 106H54.41L53.85 104.45ZM53.59 103.71L52.33 100.19L51.07 103.71H53.59ZM57.3782 105.26H59.8182V106H56.4682V99.03H57.3782V105.26ZM23.6254 119.45H20.5854L20.0254 121H19.0654L21.5854 114.07H22.6354L25.1454 121H24.1854L23.6254 119.45ZM23.3654 118.71L22.1054 115.19L20.8454 118.71H23.3654ZM32.0036 114.03L29.3736 121H28.3236L25.6936 114.03H26.6636L28.8536 120.04L31.0436 114.03H32.0036ZM33.9114 114.77V117.1H36.4514V117.85H33.9114V120.25H36.7514V121H33.0014V114.02H36.7514V114.77H33.9114ZM43.6084 121H42.6984L39.0384 115.45V121H38.1284V114.02H39.0384L42.6984 119.56V114.02H43.6084V121ZM46.0496 114.03V118.44C46.0496 119.06 46.1996 119.52 46.4996 119.82C46.8063 120.12 47.2296 120.27 47.7696 120.27C48.303 120.27 48.7196 120.12 49.0196 119.82C49.3263 119.52 49.4796 119.06 49.4796 118.44V114.03H50.3896V118.43C50.3896 119.01 50.273 119.5 50.0396 119.9C49.8063 120.293 49.4896 120.587 49.0896 120.78C48.6963 120.973 48.253 121.07 47.7596 121.07C47.2663 121.07 46.8196 120.973 46.4196 120.78C46.0263 120.587 45.713 120.293 45.4796 119.9C45.253 119.5 45.1396 119.01 45.1396 118.43V114.03H46.0496ZM52.8177 114.77V117.1H55.3577V117.85H52.8177V120.25H55.6577V121H51.9077V114.02H55.6577V114.77H52.8177Z" fill="black"/>
</svg>
