<svg width="145" height="74" viewBox="0 0 145 74" fill="none" xmlns="http://www.w3.org/2000/svg">
<rect x="144.206" y="1.35519" width="71.7851" height="143.57" transform="rotate(90 144.206 1.35519)" fill="#C7E6CF" stroke="black"/>
<path d="M54.2842 31H53.3742L49.7142 25.45V31H48.8042V24.02H49.7142L53.3742 29.56V24.02H54.2842V31ZM58.9954 31.07C58.3488 31.07 57.7588 30.92 57.2254 30.62C56.6921 30.3133 56.2688 29.89 55.9554 29.35C55.6488 28.8033 55.4954 28.19 55.4954 27.51C55.4954 26.83 55.6488 26.22 55.9554 25.68C56.2688 25.1333 56.6921 24.71 57.2254 24.41C57.7588 24.1033 58.3488 23.95 58.9954 23.95C59.6488 23.95 60.2421 24.1033 60.7754 24.41C61.3088 24.71 61.7288 25.13 62.0354 25.67C62.3421 26.21 62.4954 26.8233 62.4954 27.51C62.4954 28.1967 62.3421 28.81 62.0354 29.35C61.7288 29.89 61.3088 30.3133 60.7754 30.62C60.2421 30.92 59.6488 31.07 58.9954 31.07ZM58.9954 30.28C59.4821 30.28 59.9188 30.1667 60.3054 29.94C60.6988 29.7133 61.0054 29.39 61.2254 28.97C61.4521 28.55 61.5654 28.0633 61.5654 27.51C61.5654 26.95 61.4521 26.4633 61.2254 26.05C61.0054 25.63 60.7021 25.3067 60.3154 25.08C59.9288 24.8533 59.4888 24.74 58.9954 24.74C58.5021 24.74 58.0621 24.8533 57.6754 25.08C57.2888 25.3067 56.9821 25.63 56.7554 26.05C56.5354 26.4633 56.4254 26.95 56.4254 27.51C56.4254 28.0633 56.5354 28.55 56.7554 28.97C56.9821 29.39 57.2888 29.7133 57.6754 29.94C58.0688 30.1667 58.5088 30.28 58.9954 30.28ZM67.3668 31L65.7068 28.15H64.6068V31H63.6968V24.03H65.9468C66.4734 24.03 66.9168 24.12 67.2768 24.3C67.6434 24.48 67.9168 24.7233 68.0968 25.03C68.2768 25.3367 68.3668 25.6867 68.3668 26.08C68.3668 26.56 68.2268 26.9833 67.9468 27.35C67.6734 27.7167 67.2601 27.96 66.7068 28.08L68.4568 31H67.3668ZM64.6068 27.42H65.9468C66.4401 27.42 66.8101 27.3 67.0568 27.06C67.3034 26.8133 67.4268 26.4867 67.4268 26.08C67.4268 25.6667 67.3034 25.3467 67.0568 25.12C66.8168 24.8933 66.4468 24.78 65.9468 24.78H64.6068V27.42ZM74.0707 24.03V24.77H72.1707V31H71.2607V24.77H69.3507V24.03H74.0707ZM80.5609 24.03V31H79.6509V27.84H76.1009V31H75.1909V24.03H76.1009V27.09H79.6509V24.03H80.5609ZM84.4407 27.51C84.4407 26.83 84.5941 26.22 84.9007 25.68C85.2074 25.1333 85.6241 24.7067 86.1507 24.4C86.6841 24.0933 87.2741 23.94 87.9207 23.94C88.6807 23.94 89.3441 24.1233 89.9107 24.49C90.4774 24.8567 90.8907 25.3767 91.1507 26.05H90.0607C89.8674 25.63 89.5874 25.3067 89.2207 25.08C88.8607 24.8533 88.4274 24.74 87.9207 24.74C87.4341 24.74 86.9974 24.8533 86.6107 25.08C86.2241 25.3067 85.9207 25.63 85.7007 26.05C85.4807 26.4633 85.3707 26.95 85.3707 27.51C85.3707 28.0633 85.4807 28.55 85.7007 28.97C85.9207 29.3833 86.2241 29.7033 86.6107 29.93C86.9974 30.1567 87.4341 30.27 87.9207 30.27C88.4274 30.27 88.8607 30.16 89.2207 29.94C89.5874 29.7133 89.8674 29.39 90.0607 28.97H91.1507C90.8907 29.6367 90.4774 30.1533 89.9107 30.52C89.3441 30.88 88.6807 31.06 87.9207 31.06C87.2741 31.06 86.6841 30.91 86.1507 30.61C85.6241 30.3033 85.2074 29.88 84.9007 29.34C84.5941 28.8 84.4407 28.19 84.4407 27.51ZM96.6254 29.45H93.5854L93.0254 31H92.0654L94.5854 24.07H95.6354L98.1454 31H97.1854L96.6254 29.45ZM96.3654 28.71L95.1054 25.19L93.8454 28.71H96.3654ZM102.914 31L101.254 28.15H100.154V31H99.2436V24.03H101.494C102.02 24.03 102.464 24.12 102.824 24.3C103.19 24.48 103.464 24.7233 103.644 25.03C103.824 25.3367 103.914 25.6867 103.914 26.08C103.914 26.56 103.774 26.9833 103.494 27.35C103.22 27.7167 102.807 27.96 102.254 28.08L104.004 31H102.914ZM100.154 27.42H101.494C101.987 27.42 102.357 27.3 102.604 27.06C102.85 26.8133 102.974 26.4867 102.974 26.08C102.974 25.6667 102.85 25.3467 102.604 25.12C102.364 24.8933 101.994 24.78 101.494 24.78H100.154V27.42ZM108.488 31.07C107.841 31.07 107.251 30.92 106.718 30.62C106.184 30.3133 105.761 29.89 105.448 29.35C105.141 28.8033 104.988 28.19 104.988 27.51C104.988 26.83 105.141 26.22 105.448 25.68C105.761 25.1333 106.184 24.71 106.718 24.41C107.251 24.1033 107.841 23.95 108.488 23.95C109.141 23.95 109.734 24.1033 110.268 24.41C110.801 24.71 111.221 25.13 111.528 25.67C111.834 26.21 111.988 26.8233 111.988 27.51C111.988 28.1967 111.834 28.81 111.528 29.35C111.221 29.89 110.801 30.3133 110.268 30.62C109.734 30.92 109.141 31.07 108.488 31.07ZM108.488 30.28C108.974 30.28 109.411 30.1667 109.798 29.94C110.191 29.7133 110.498 29.39 110.718 28.97C110.944 28.55 111.058 28.0633 111.058 27.51C111.058 26.95 110.944 26.4633 110.718 26.05C110.498 25.63 110.194 25.3067 109.808 25.08C109.421 24.8533 108.981 24.74 108.488 24.74C107.994 24.74 107.554 24.8533 107.168 25.08C106.781 25.3067 106.474 25.63 106.248 26.05C106.028 26.4633 105.918 26.95 105.918 27.51C105.918 28.0633 106.028 28.55 106.248 28.97C106.474 29.39 106.781 29.7133 107.168 29.94C107.561 30.1667 108.001 30.28 108.488 30.28ZM114.099 30.26H116.539V31H113.189V24.03H114.099V30.26ZM118.415 24.03V31H117.505V24.03H118.415ZM125.446 31H124.536L120.876 25.45V31H119.966V24.02H120.876L124.536 29.56V24.02H125.446V31ZM131.118 29.45H128.078L127.518 31H126.558L129.078 24.07H130.128L132.638 31H131.678L131.118 29.45ZM130.858 28.71L129.598 25.19L128.338 28.71H130.858ZM76.6254 44.45H73.5854L73.0254 46H72.0654L74.5854 39.07H75.6354L78.1454 46H77.1854L76.6254 44.45ZM76.3654 43.71L75.1054 40.19L73.8454 43.71H76.3654ZM85.0036 39.03L82.3736 46H81.3236L78.6936 39.03H79.6636L81.8536 45.04L84.0436 39.03H85.0036ZM86.9114 39.77V42.1H89.4514V42.85H86.9114V45.25H89.7514V46H86.0014V39.02H89.7514V39.77H86.9114ZM96.6084 46H95.6984L92.0384 40.45V46H91.1284V39.02H92.0384L95.6984 44.56V39.02H96.6084V46ZM99.0496 39.03V43.44C99.0496 44.06 99.1996 44.52 99.4996 44.82C99.8063 45.12 100.23 45.27 100.77 45.27C101.303 45.27 101.72 45.12 102.02 44.82C102.326 44.52 102.48 44.06 102.48 43.44V39.03H103.39V43.43C103.39 44.01 103.273 44.5 103.04 44.9C102.806 45.2933 102.49 45.5867 102.09 45.78C101.696 45.9733 101.253 46.07 100.76 46.07C100.266 46.07 99.8196 45.9733 99.4196 45.78C99.0263 45.5867 98.713 45.2933 98.4796 44.9C98.253 44.5 98.1396 44.01 98.1396 43.43V39.03H99.0496ZM105.818 39.77V42.1H108.358V42.85H105.818V45.25H108.658V46H104.908V39.02H108.658V39.77H105.818Z" fill="black"/>
<rect x="0.635742" y="1.35519" width="35.8925" height="71.7851" fill="#099127" stroke="black"/>
</svg>
