<svg width="74" height="146" viewBox="0 0 74 146" fill="none" xmlns="http://www.w3.org/2000/svg">
<rect x="0.925293" y="1" width="71.7851" height="143.57" fill="#C7E6CF" stroke="black"/>
<rect x="0.925293" y="144.57" width="35.8925" height="71.7851" transform="rotate(-90 0.925293 144.57)" fill="#F70000" stroke="black"/>
<path d="M20.1092 37.5576V44.5276H19.1992V37.5576H20.1092ZM22.5701 43.7876H25.0101V44.5276H21.6601V37.5576H22.5701V43.7876ZM26.8865 43.7876H29.3265V44.5276H25.9765V37.5576H26.8865V43.7876ZM31.2029 37.5576V44.5276H30.2929V37.5576H31.2029ZM38.2338 44.5276H37.3238L33.6638 38.9776V44.5276H32.7538V37.5476H33.6638L37.3238 43.0876V37.5476H38.2338V44.5276ZM42.9451 44.5976C42.2984 44.5976 41.7084 44.4476 41.1751 44.1476C40.6418 43.8409 40.2184 43.4176 39.9051 42.8776C39.5984 42.3309 39.4451 41.7176 39.4451 41.0376C39.4451 40.3576 39.5984 39.7476 39.9051 39.2076C40.2184 38.6609 40.6418 38.2376 41.1751 37.9376C41.7084 37.6309 42.2984 37.4776 42.9451 37.4776C43.5984 37.4776 44.1918 37.6309 44.7251 37.9376C45.2584 38.2376 45.6784 38.6576 45.9851 39.1976C46.2918 39.7376 46.4451 40.3509 46.4451 41.0376C46.4451 41.7243 46.2918 42.3376 45.9851 42.8776C45.6784 43.4176 45.2584 43.8409 44.7251 44.1476C44.1918 44.4476 43.5984 44.5976 42.9451 44.5976ZM42.9451 43.8076C43.4318 43.8076 43.8684 43.6943 44.2551 43.4676C44.6484 43.2409 44.9551 42.9176 45.1751 42.4976C45.4018 42.0776 45.5151 41.5909 45.5151 41.0376C45.5151 40.4776 45.4018 39.9909 45.1751 39.5776C44.9551 39.1576 44.6518 38.8343 44.2651 38.6076C43.8784 38.3809 43.4384 38.2676 42.9451 38.2676C42.4518 38.2676 42.0118 38.3809 41.6251 38.6076C41.2384 38.8343 40.9318 39.1576 40.7051 39.5776C40.4851 39.9909 40.3751 40.4776 40.3751 41.0376C40.3751 41.5909 40.4851 42.0776 40.7051 42.4976C40.9318 42.9176 41.2384 43.2409 41.6251 43.4676C42.0184 43.6943 42.4584 43.8076 42.9451 43.8076ZM48.5564 37.5576V44.5276H47.6464V37.5576H48.5564ZM52.3174 44.5976C51.8574 44.5976 51.444 44.5176 51.0774 44.3576C50.7174 44.1909 50.434 43.9643 50.2274 43.6776C50.0207 43.3843 49.914 43.0476 49.9074 42.6676H50.8774C50.9107 42.9943 51.044 43.2709 51.2774 43.4976C51.5174 43.7176 51.864 43.8276 52.3174 43.8276C52.7507 43.8276 53.0907 43.7209 53.3374 43.5076C53.5907 43.2876 53.7174 43.0076 53.7174 42.6676C53.7174 42.4009 53.644 42.1843 53.4974 42.0176C53.3507 41.8509 53.1674 41.7243 52.9474 41.6376C52.7274 41.5509 52.4307 41.4576 52.0574 41.3576C51.5974 41.2376 51.2274 41.1176 50.9474 40.9976C50.674 40.8776 50.4374 40.6909 50.2374 40.4376C50.044 40.1776 49.9474 39.8309 49.9474 39.3976C49.9474 39.0176 50.044 38.6809 50.2374 38.3876C50.4307 38.0943 50.7007 37.8676 51.0474 37.7076C51.4007 37.5476 51.804 37.4676 52.2574 37.4676C52.9107 37.4676 53.444 37.6309 53.8574 37.9576C54.2774 38.2843 54.514 38.7176 54.5674 39.2576H53.5674C53.534 38.9909 53.394 38.7576 53.1474 38.5576C52.9007 38.3509 52.574 38.2476 52.1674 38.2476C51.7874 38.2476 51.4774 38.3476 51.2374 38.5476C50.9974 38.7409 50.8774 39.0143 50.8774 39.3676C50.8774 39.6209 50.9474 39.8276 51.0874 39.9876C51.234 40.1476 51.4107 40.2709 51.6174 40.3576C51.8307 40.4376 52.1274 40.5309 52.5074 40.6376C52.9674 40.7643 53.3374 40.8909 53.6174 41.0176C53.8974 41.1376 54.1374 41.3276 54.3374 41.5876C54.5374 41.8409 54.6374 42.1876 54.6374 42.6276C54.6374 42.9676 54.5474 43.2876 54.3674 43.5876C54.1874 43.8876 53.9207 44.1309 53.5674 44.3176C53.214 44.5043 52.7974 44.5976 52.3174 44.5976ZM22.9432 57.9776H19.9032L19.3432 59.5276H18.3832L20.9032 52.5976H21.9532L24.4632 59.5276H23.5032L22.9432 57.9776ZM22.6832 57.2376L21.4232 53.7176L20.1632 57.2376H22.6832ZM31.3215 52.5576L28.6915 59.5276H27.6415L25.0115 52.5576H25.9815L28.1715 58.5676L30.3615 52.5576H31.3215ZM33.2293 53.2976V55.6276H35.7693V56.3776H33.2293V58.7776H36.0693V59.5276H32.3193V52.5476H36.0693V53.2976H33.2293ZM42.9262 59.5276H42.0162L38.3562 53.9776V59.5276H37.4462V52.5476H38.3562L42.0162 58.0876V52.5476H42.9262V59.5276ZM45.3675 52.5576V56.9676C45.3675 57.5876 45.5175 58.0476 45.8175 58.3476C46.1241 58.6476 46.5475 58.7976 47.0875 58.7976C47.6208 58.7976 48.0375 58.6476 48.3375 58.3476C48.6441 58.0476 48.7975 57.5876 48.7975 56.9676V52.5576H49.7075V56.9576C49.7075 57.5376 49.5908 58.0276 49.3575 58.4276C49.1241 58.8209 48.8075 59.1143 48.4075 59.3076C48.0141 59.5009 47.5708 59.5976 47.0775 59.5976C46.5841 59.5976 46.1375 59.5009 45.7375 59.3076C45.3441 59.1143 45.0308 58.8209 44.7975 58.4276C44.5708 58.0276 44.4575 57.5376 44.4575 56.9576V52.5576H45.3675ZM52.1355 53.2976V55.6276H54.6755V56.3776H52.1355V58.7776H54.9755V59.5276H51.2255V52.5476H54.9755V53.2976H52.1355Z" fill="black"/>
</svg>
