<svg width="145" height="74" viewBox="0 0 145 74" fill="none" xmlns="http://www.w3.org/2000/svg">
<rect x="144.206" y="0.850647" width="71.7851" height="143.57" transform="rotate(90 144.206 0.850647)" fill="#C7E6CF" stroke="black"/>
<rect x="0.635742" y="0.850647" width="35.8925" height="71.7851" fill="#0C08D9" stroke="black"/>
<path d="M65.9677 36.3017C66.221 36.3417 66.451 36.445 66.6577 36.6117C66.871 36.7783 67.0377 36.985 67.1577 37.2317C67.2844 37.4783 67.3477 37.7417 67.3477 38.0217C67.3477 38.375 67.2577 38.695 67.0777 38.9817C66.8977 39.2617 66.6344 39.485 66.2877 39.6517C65.9477 39.8117 65.5444 39.8917 65.0777 39.8917H62.4777V32.9217H64.9777C65.451 32.9217 65.8544 33.0017 66.1877 33.1617C66.521 33.315 66.771 33.525 66.9377 33.7917C67.1044 34.0583 67.1877 34.3583 67.1877 34.6917C67.1877 35.105 67.0744 35.4483 66.8477 35.7217C66.6277 35.9883 66.3344 36.1817 65.9677 36.3017ZM63.3877 35.9317H64.9177C65.3444 35.9317 65.6744 35.8317 65.9077 35.6317C66.141 35.4317 66.2577 35.155 66.2577 34.8017C66.2577 34.4483 66.141 34.1717 65.9077 33.9717C65.6744 33.7717 65.3377 33.6717 64.8977 33.6717H63.3877V35.9317ZM64.9977 39.1417C65.451 39.1417 65.8044 39.035 66.0577 38.8217C66.311 38.6083 66.4377 38.3117 66.4377 37.9317C66.4377 37.545 66.3044 37.2417 66.0377 37.0217C65.771 36.795 65.4144 36.6817 64.9677 36.6817H63.3877V39.1417H64.9977ZM72.2805 39.8917L70.6205 37.0417H69.5205V39.8917H68.6105V32.9217H70.8605C71.3872 32.9217 71.8305 33.0117 72.1905 33.1917C72.5572 33.3717 72.8305 33.615 73.0105 33.9217C73.1905 34.2283 73.2805 34.5783 73.2805 34.9717C73.2805 35.4517 73.1405 35.875 72.8605 36.2417C72.5872 36.6083 72.1738 36.8517 71.6205 36.9717L73.3705 39.8917H72.2805ZM69.5205 36.3117H70.8605C71.3538 36.3117 71.7238 36.1917 71.9705 35.9517C72.2172 35.705 72.3405 35.3783 72.3405 34.9717C72.3405 34.5583 72.2172 34.2383 71.9705 34.0117C71.7305 33.785 71.3605 33.6717 70.8605 33.6717H69.5205V36.3117ZM77.8545 39.9617C77.2078 39.9617 76.6178 39.8117 76.0845 39.5117C75.5511 39.205 75.1278 38.7817 74.8145 38.2417C74.5078 37.695 74.3545 37.0817 74.3545 36.4017C74.3545 35.7217 74.5078 35.1117 74.8145 34.5717C75.1278 34.025 75.5511 33.6017 76.0845 33.3017C76.6178 32.995 77.2078 32.8417 77.8545 32.8417C78.5078 32.8417 79.1011 32.995 79.6345 33.3017C80.1678 33.6017 80.5878 34.0217 80.8945 34.5617C81.2011 35.1017 81.3545 35.715 81.3545 36.4017C81.3545 37.0883 81.2011 37.7017 80.8945 38.2417C80.5878 38.7817 80.1678 39.205 79.6345 39.5117C79.1011 39.8117 78.5078 39.9617 77.8545 39.9617ZM77.8545 39.1717C78.3411 39.1717 78.7778 39.0583 79.1645 38.8317C79.5578 38.605 79.8645 38.2817 80.0845 37.8617C80.3111 37.4417 80.4245 36.955 80.4245 36.4017C80.4245 35.8417 80.3111 35.355 80.0845 34.9417C79.8645 34.5217 79.5611 34.1983 79.1745 33.9717C78.7878 33.745 78.3478 33.6317 77.8545 33.6317C77.3611 33.6317 76.9211 33.745 76.5345 33.9717C76.1478 34.1983 75.8411 34.5217 75.6145 34.9417C75.3945 35.355 75.2845 35.8417 75.2845 36.4017C75.2845 36.955 75.3945 37.4417 75.6145 37.8617C75.8411 38.2817 76.1478 38.605 76.5345 38.8317C76.9278 39.0583 77.3678 39.1717 77.8545 39.1717ZM86.6758 38.3417H83.6358L83.0758 39.8917H82.1158L84.6358 32.9617H85.6858L88.1958 39.8917H87.2358L86.6758 38.3417ZM86.4158 37.6017L85.1558 34.0817L83.8958 37.6017H86.4158ZM91.4641 32.9217C92.2241 32.9217 92.8808 33.065 93.4341 33.3517C93.9941 33.6317 94.4208 34.035 94.7141 34.5617C95.0141 35.0883 95.1641 35.7083 95.1641 36.4217C95.1641 37.135 95.0141 37.755 94.7141 38.2817C94.4208 38.8017 93.9941 39.2017 93.4341 39.4817C92.8808 39.755 92.2241 39.8917 91.4641 39.8917H89.2941V32.9217H91.4641ZM91.4641 39.1417C92.3641 39.1417 93.0508 38.905 93.5241 38.4317C93.9974 37.9517 94.2341 37.2817 94.2341 36.4217C94.2341 35.555 93.9941 34.8783 93.5141 34.3917C93.0408 33.905 92.3574 33.6617 91.4641 33.6617H90.2041V39.1417H91.4641ZM105.124 32.9217L103.104 39.8917H102.084L100.464 34.2817L98.7844 39.8917L97.7744 39.9017L95.8244 32.9217H96.7944L98.3144 38.8317L99.9944 32.9217H101.014L102.614 38.8117L104.144 32.9217H105.124ZM110.24 38.3417H107.2L106.64 39.8917H105.68L108.2 32.9617H109.25L111.76 39.8917H110.8L110.24 38.3417ZM109.98 37.6017L108.72 34.0817L107.46 37.6017H109.98ZM113.769 39.1517H116.209V39.8917H112.859V32.9217H113.769V39.1517ZM120.955 39.8917L118.085 36.7117V39.8917H117.175V32.9217H118.085V36.1517L120.965 32.9217H122.115L118.955 36.4117L122.145 39.8917H120.955Z" fill="black"/>
</svg>
