<svg width="146" height="74" viewBox="0 0 146 74" fill="none" xmlns="http://www.w3.org/2000/svg">
<rect x="144.57" y="1.28052" width="71.7851" height="143.57" transform="rotate(90 144.57 1.28052)" fill="#C7E6CF" stroke="black"/>
<rect x="108.678" y="1.28052" width="35.8925" height="71.7851" fill="#F257D0" stroke="black"/>
<path d="M40.6069 31.4184C40.1469 31.4184 39.7336 31.3384 39.3669 31.1784C39.0069 31.0117 38.7236 30.7851 38.5169 30.4984C38.3102 30.2051 38.2036 29.8684 38.1969 29.4884H39.1669C39.2002 29.8151 39.3336 30.0917 39.5669 30.3184C39.8069 30.5384 40.1536 30.6484 40.6069 30.6484C41.0402 30.6484 41.3802 30.5417 41.6269 30.3284C41.8802 30.1084 42.0069 29.8284 42.0069 29.4884C42.0069 29.2217 41.9336 29.0051 41.7869 28.8384C41.6402 28.6717 41.4569 28.5451 41.2369 28.4584C41.0169 28.3717 40.7202 28.2784 40.3469 28.1784C39.8869 28.0584 39.5169 27.9384 39.2369 27.8184C38.9636 27.6984 38.7269 27.5117 38.5269 27.2584C38.3336 26.9984 38.2369 26.6517 38.2369 26.2184C38.2369 25.8384 38.3336 25.5017 38.5269 25.2084C38.7202 24.9151 38.9902 24.6884 39.3369 24.5284C39.6902 24.3684 40.0936 24.2884 40.5469 24.2884C41.2002 24.2884 41.7336 24.4517 42.1469 24.7784C42.5669 25.1051 42.8036 25.5384 42.8569 26.0784H41.8569C41.8236 25.8117 41.6836 25.5784 41.4369 25.3784C41.1902 25.1717 40.8636 25.0684 40.4569 25.0684C40.0769 25.0684 39.7669 25.1684 39.5269 25.3684C39.2869 25.5617 39.1669 25.8351 39.1669 26.1884C39.1669 26.4417 39.2369 26.6484 39.3769 26.8084C39.5236 26.9684 39.7002 27.0917 39.9069 27.1784C40.1202 27.2584 40.4169 27.3517 40.7969 27.4584C41.2569 27.5851 41.6269 27.7117 41.9069 27.8384C42.1869 27.9584 42.4269 28.1484 42.6269 28.4084C42.8269 28.6617 42.9269 29.0084 42.9269 29.4484C42.9269 29.7884 42.8369 30.1084 42.6569 30.4084C42.4769 30.7084 42.2102 30.9517 41.8569 31.1384C41.5036 31.3251 41.0869 31.4184 40.6069 31.4184ZM48.5561 24.3784V25.1184H46.6561V31.3484H45.7461V25.1184H43.8361V24.3784H48.5561ZM53.7962 29.7984H50.7562L50.1962 31.3484H49.2362L51.7562 24.4184H52.8062L55.3162 31.3484H54.3562L53.7962 29.7984ZM53.5362 29.0584L52.2762 25.5384L51.0162 29.0584H53.5362ZM60.7045 24.3784V25.1184H58.8045V31.3484H57.8945V25.1184H55.9845V24.3784H60.7045ZM62.7346 25.1184V27.4484H65.2746V28.1984H62.7346V30.5984H65.5746V31.3484H61.8246V24.3684H65.5746V25.1184H62.7346ZM69.1616 31.4184C68.7016 31.4184 68.2883 31.3384 67.9216 31.1784C67.5616 31.0117 67.2783 30.7851 67.0716 30.4984C66.8649 30.2051 66.7583 29.8684 66.7516 29.4884H67.7216C67.7549 29.8151 67.8883 30.0917 68.1216 30.3184C68.3616 30.5384 68.7083 30.6484 69.1616 30.6484C69.5949 30.6484 69.9349 30.5417 70.1816 30.3284C70.4349 30.1084 70.5616 29.8284 70.5616 29.4884C70.5616 29.2217 70.4883 29.0051 70.3416 28.8384C70.1949 28.6717 70.0116 28.5451 69.7916 28.4584C69.5716 28.3717 69.2749 28.2784 68.9016 28.1784C68.4416 28.0584 68.0716 27.9384 67.7916 27.8184C67.5183 27.6984 67.2816 27.5117 67.0816 27.2584C66.8883 26.9984 66.7916 26.6517 66.7916 26.2184C66.7916 25.8384 66.8883 25.5017 67.0816 25.2084C67.2749 24.9151 67.5449 24.6884 67.8916 24.5284C68.2449 24.3684 68.6483 24.2884 69.1016 24.2884C69.7549 24.2884 70.2883 24.4517 70.7016 24.7784C71.1216 25.1051 71.3583 25.5384 71.4116 26.0784H70.4116C70.3783 25.8117 70.2383 25.5784 69.9916 25.3784C69.7449 25.1717 69.4183 25.0684 69.0116 25.0684C68.6316 25.0684 68.3216 25.1684 68.0816 25.3684C67.8416 25.5617 67.7216 25.8351 67.7216 26.1884C67.7216 26.4417 67.7916 26.6484 67.9316 26.8084C68.0783 26.9684 68.2549 27.0917 68.4616 27.1784C68.6749 27.2584 68.9716 27.3517 69.3516 27.4584C69.8116 27.5851 70.1816 27.7117 70.4616 27.8384C70.7416 27.9584 70.9816 28.1484 71.1816 28.4084C71.3816 28.6617 71.4816 29.0084 71.4816 29.4484C71.4816 29.7884 71.3916 30.1084 71.2116 30.4084C71.0316 30.7084 70.7649 30.9517 70.4116 31.1384C70.0583 31.3251 69.6416 31.4184 69.1616 31.4184ZM40.9642 44.7984H37.9242L37.3642 46.3484H36.4042L38.9242 39.4184H39.9742L42.4842 46.3484H41.5242L40.9642 44.7984ZM40.7042 44.0584L39.4442 40.5384L38.1842 44.0584H40.7042ZM49.3425 39.3784L46.7125 46.3484H45.6625L43.0325 39.3784H44.0025L46.1925 45.3884L48.3825 39.3784H49.3425ZM51.2503 40.1184V42.4484H53.7903V43.1984H51.2503V45.5984H54.0903V46.3484H50.3403V39.3684H54.0903V40.1184H51.2503ZM60.9472 46.3484H60.0372L56.3772 40.7984V46.3484H55.4672V39.3684H56.3772L60.0372 44.9084V39.3684H60.9472V46.3484ZM63.3885 39.3784V43.7884C63.3885 44.4084 63.5385 44.8684 63.8385 45.1684C64.1451 45.4684 64.5685 45.6184 65.1085 45.6184C65.6418 45.6184 66.0585 45.4684 66.3585 45.1684C66.6651 44.8684 66.8185 44.4084 66.8185 43.7884V39.3784H67.7285V43.7784C67.7285 44.3584 67.6118 44.8484 67.3785 45.2484C67.1451 45.6417 66.8285 45.9351 66.4285 46.1284C66.0351 46.3217 65.5918 46.4184 65.0985 46.4184C64.6051 46.4184 64.1585 46.3217 63.7585 46.1284C63.3651 45.9351 63.0518 45.6417 62.8185 45.2484C62.5918 44.8484 62.4785 44.3584 62.4785 43.7784V39.3784H63.3885ZM70.1565 40.1184V42.4484H72.6965V43.1984H70.1565V45.5984H72.9965V46.3484H69.2465V39.3684H72.9965V40.1184H70.1565Z" fill="black"/>
</svg>
