<svg width="145" height="74" viewBox="0 0 145 74" fill="none" xmlns="http://www.w3.org/2000/svg">
<rect x="144.206" y="1.28052" width="71.7851" height="143.57" transform="rotate(90 144.206 1.28052)" fill="#C7E6CF" stroke="black"/>
<path d="M81.8148 26.4184C81.8148 26.9984 81.6148 27.4817 81.2148 27.8684C80.8215 28.2484 80.2182 28.4384 79.4048 28.4384H78.0648V31.3484H77.1548V24.3784H79.4048C80.1915 24.3784 80.7882 24.5684 81.1948 24.9484C81.6082 25.3284 81.8148 25.8184 81.8148 26.4184ZM79.4048 27.6884C79.9115 27.6884 80.2848 27.5784 80.5248 27.3584C80.7648 27.1384 80.8848 26.8251 80.8848 26.4184C80.8848 25.5584 80.3915 25.1284 79.4048 25.1284H78.0648V27.6884H79.4048ZM87.0658 29.7984H84.0258L83.4658 31.3484H82.5058L85.0258 24.4184H86.0758L88.5858 31.3484H87.6258L87.0658 29.7984ZM86.8058 29.0584L85.5458 25.5384L84.2858 29.0584H86.8058ZM93.3541 31.3484L91.6941 28.4984H90.5941V31.3484H89.6841V24.3784H91.9341C92.4608 24.3784 92.9041 24.4684 93.2641 24.6484C93.6308 24.8284 93.9041 25.0717 94.0841 25.3784C94.2641 25.6851 94.3541 26.0351 94.3541 26.4284C94.3541 26.9084 94.2141 27.3317 93.9341 27.6984C93.6608 28.0651 93.2475 28.3084 92.6941 28.4284L94.4441 31.3484H93.3541ZM90.5941 27.7684H91.9341C92.4275 27.7684 92.7975 27.6484 93.0441 27.4084C93.2908 27.1617 93.4141 26.8351 93.4141 26.4284C93.4141 26.0151 93.2908 25.6951 93.0441 25.4684C92.8041 25.2417 92.4341 25.1284 91.9341 25.1284H90.5941V27.7684ZM99.5481 31.3484L96.6781 28.1684V31.3484H95.7681V24.3784H96.6781V27.6084L99.5581 24.3784H100.708L97.5481 27.8684L100.738 31.3484H99.5481ZM79.266 41.4184C79.266 41.9984 79.066 42.4817 78.666 42.8684C78.2727 43.2484 77.6693 43.4384 76.856 43.4384H75.516V46.3484H74.606V39.3784H76.856C77.6427 39.3784 78.2393 39.5684 78.646 39.9484C79.0593 40.3284 79.266 40.8184 79.266 41.4184ZM76.856 42.6884C77.3627 42.6884 77.736 42.5784 77.976 42.3584C78.216 42.1384 78.336 41.8251 78.336 41.4184C78.336 40.5584 77.8427 40.1284 76.856 40.1284H75.516V42.6884H76.856ZM81.307 45.6084H83.747V46.3484H80.397V39.3784H81.307V45.6084ZM88.8334 44.7984H85.7934L85.2334 46.3484H84.2734L86.7934 39.4184H87.8434L90.3534 46.3484H89.3934L88.8334 44.7984ZM88.5734 44.0584L87.3134 40.5384L86.0534 44.0584H88.5734ZM91.1117 42.8584C91.1117 42.1784 91.265 41.5684 91.5717 41.0284C91.8784 40.4817 92.295 40.0551 92.8217 39.7484C93.355 39.4417 93.945 39.2884 94.5917 39.2884C95.3517 39.2884 96.015 39.4717 96.5817 39.8384C97.1484 40.2051 97.5617 40.7251 97.8217 41.3984H96.7317C96.5384 40.9784 96.2584 40.6551 95.8917 40.4284C95.5317 40.2017 95.0984 40.0884 94.5917 40.0884C94.105 40.0884 93.6684 40.2017 93.2817 40.4284C92.895 40.6551 92.5917 40.9784 92.3717 41.3984C92.1517 41.8117 92.0417 42.2984 92.0417 42.8584C92.0417 43.4117 92.1517 43.8984 92.3717 44.3184C92.5917 44.7317 92.895 45.0517 93.2817 45.2784C93.6684 45.5051 94.105 45.6184 94.5917 45.6184C95.0984 45.6184 95.5317 45.5084 95.8917 45.2884C96.2584 45.0617 96.5384 44.7384 96.7317 44.3184H97.8217C97.5617 44.9851 97.1484 45.5017 96.5817 45.8684C96.015 46.2284 95.3517 46.4084 94.5917 46.4084C93.945 46.4084 93.355 46.2584 92.8217 45.9584C92.295 45.6517 91.8784 45.2284 91.5717 44.6884C91.265 44.1484 91.1117 43.5384 91.1117 42.8584ZM100.086 40.1184V42.4484H102.626V43.1984H100.086V45.5984H102.926V46.3484H99.1763V39.3684H102.926V40.1184H100.086Z" fill="black"/>
<rect x="0.635742" y="1.28052" width="35.8925" height="71.7851" fill="#0C08D9" stroke="black"/>
</svg>
