<svg width="74" height="146" viewBox="0 0 74 146" fill="none" xmlns="http://www.w3.org/2000/svg">
<rect x="1.14026" y="1" width="71.7851" height="143.57" fill="#C7E6CF" stroke="black"/>
<rect x="1.14026" y="144.57" width="35.8925" height="71.7851" transform="rotate(-90 1.14026 144.57)" fill="#F70000" stroke="black"/>
<path d="M18.9472 37.5576V44.5276H18.0372V37.5576H18.9472ZM25.9781 44.5276H25.0681L21.4081 38.9776V44.5276H20.4981V37.5476H21.4081L25.0681 43.0876V37.5476H25.9781V44.5276ZM29.6994 37.5576C30.4594 37.5576 31.116 37.7009 31.6694 37.9876C32.2294 38.2676 32.656 38.6709 32.9494 39.1976C33.2494 39.7243 33.3994 40.3443 33.3994 41.0576C33.3994 41.7709 33.2494 42.3909 32.9494 42.9176C32.656 43.4376 32.2294 43.8376 31.6694 44.1176C31.116 44.3909 30.4594 44.5276 29.6994 44.5276H27.5294V37.5576H29.6994ZM29.6994 43.7776C30.5994 43.7776 31.286 43.5409 31.7594 43.0676C32.2327 42.5876 32.4694 41.9176 32.4694 41.0576C32.4694 40.1909 32.2294 39.5143 31.7494 39.0276C31.276 38.5409 30.5927 38.2976 29.6994 38.2976H28.4394V43.7776H29.6994ZM35.5097 37.5576V44.5276H34.5997V37.5576H35.5097ZM41.1806 42.9776H38.1406L37.5806 44.5276H36.6206L39.1406 37.5976H40.1906L42.7006 44.5276H41.7406L41.1806 42.9776ZM40.9206 42.2376L39.6606 38.7176L38.4006 42.2376H40.9206ZM49.2789 44.5276H48.3689L44.7089 38.9776V44.5276H43.7989V37.5476H44.7089L48.3689 43.0876V37.5476H49.2789V44.5276ZM54.9501 42.9776H51.9101L51.3501 44.5276H50.3901L52.9101 37.5976H53.9601L56.4701 44.5276H55.5101L54.9501 42.9776ZM54.6901 42.2376L53.4301 38.7176L52.1701 42.2376H54.6901ZM23.1581 57.9776H20.1181L19.5581 59.5276H18.5981L21.1181 52.5976H22.1681L24.6781 59.5276H23.7181L23.1581 57.9776ZM22.8981 57.2376L21.6381 53.7176L20.3781 57.2376H22.8981ZM31.5364 52.5576L28.9064 59.5276H27.8564L25.2264 52.5576H26.1964L28.3864 58.5676L30.5764 52.5576H31.5364ZM33.4442 53.2976V55.6276H35.9842V56.3776H33.4442V58.7776H36.2842V59.5276H32.5342V52.5476H36.2842V53.2976H33.4442ZM43.1412 59.5276H42.2312L38.5712 53.9776V59.5276H37.6612V52.5476H38.5712L42.2312 58.0876V52.5476H43.1412V59.5276ZM45.5824 52.5576V56.9676C45.5824 57.5876 45.7324 58.0476 46.0324 58.3476C46.3391 58.6476 46.7624 58.7976 47.3024 58.7976C47.8358 58.7976 48.2524 58.6476 48.5524 58.3476C48.8591 58.0476 49.0124 57.5876 49.0124 56.9676V52.5576H49.9224V56.9576C49.9224 57.5376 49.8058 58.0276 49.5724 58.4276C49.3391 58.8209 49.0224 59.1143 48.6224 59.3076C48.2291 59.5009 47.7858 59.5976 47.2924 59.5976C46.7991 59.5976 46.3524 59.5009 45.9524 59.3076C45.5591 59.1143 45.2458 58.8209 45.0124 58.4276C44.7858 58.0276 44.6724 57.5376 44.6724 56.9576V52.5576H45.5824ZM52.3505 53.2976V55.6276H54.8905V56.3776H52.3505V58.7776H55.1905V59.5276H51.4405V52.5476H55.1905V53.2976H52.3505Z" fill="black"/>
</svg>
