<svg width="74" height="145" viewBox="0 0 74 145" fill="none" xmlns="http://www.w3.org/2000/svg">
<rect x="1.35522" y="0.635742" width="71.7851" height="143.57" fill="#C7E6CF" stroke="black"/>
<rect x="1.35522" y="36.5283" width="35.8925" height="71.7851" transform="rotate(-90 1.35522 36.5283)" fill="#88D0FF" stroke="black"/>
<path d="M19.5876 99.03L16.9576 106H15.9076L13.2776 99.03H14.2476L16.4376 105.04L18.6276 99.03H19.5876ZM21.4954 99.77V102.1H24.0354V102.85H21.4954V105.25H24.3354V106H20.5854V99.02H24.3354V99.77H21.4954ZM29.3824 106L27.7224 103.15H26.6224V106H25.7124V99.03H27.9624C28.489 99.03 28.9324 99.12 29.2924 99.3C29.659 99.48 29.9324 99.7233 30.1124 100.03C30.2924 100.337 30.3824 100.687 30.3824 101.08C30.3824 101.56 30.2424 101.983 29.9624 102.35C29.689 102.717 29.2757 102.96 28.7224 103.08L30.4724 106H29.3824ZM26.6224 102.42H27.9624C28.4557 102.42 28.8257 102.3 29.0724 102.06C29.319 101.813 29.4424 101.487 29.4424 101.08C29.4424 100.667 29.319 100.347 29.0724 100.12C28.8324 99.8933 28.4624 99.78 27.9624 99.78H26.6224V102.42ZM38.8664 99.08V106H37.9564V100.84L35.6564 106H35.0164L32.7064 100.83V106H31.7964V99.08H32.7764L35.3364 104.8L37.8964 99.08H38.8664ZM43.5696 106.07C42.923 106.07 42.333 105.92 41.7996 105.62C41.2663 105.313 40.843 104.89 40.5296 104.35C40.223 103.803 40.0696 103.19 40.0696 102.51C40.0696 101.83 40.223 101.22 40.5296 100.68C40.843 100.133 41.2663 99.71 41.7996 99.41C42.333 99.1033 42.923 98.95 43.5696 98.95C44.223 98.95 44.8163 99.1033 45.3496 99.41C45.883 99.71 46.303 100.13 46.6096 100.67C46.9163 101.21 47.0696 101.823 47.0696 102.51C47.0696 103.197 46.9163 103.81 46.6096 104.35C46.303 104.89 45.883 105.313 45.3496 105.62C44.8163 105.92 44.223 106.07 43.5696 106.07ZM43.5696 105.28C44.0563 105.28 44.493 105.167 44.8796 104.94C45.273 104.713 45.5796 104.39 45.7996 103.97C46.0263 103.55 46.1396 103.063 46.1396 102.51C46.1396 101.95 46.0263 101.463 45.7996 101.05C45.5796 100.63 45.2763 100.307 44.8896 100.08C44.503 99.8533 44.063 99.74 43.5696 99.74C43.0763 99.74 42.6363 99.8533 42.2496 100.08C41.863 100.307 41.5563 100.63 41.3296 101.05C41.1096 101.463 40.9996 101.95 40.9996 102.51C40.9996 103.063 41.1096 103.55 41.3296 103.97C41.5563 104.39 41.863 104.713 42.2496 104.94C42.643 105.167 43.083 105.28 43.5696 105.28ZM53.751 106H52.841L49.181 100.45V106H48.271V99.02H49.181L52.841 104.56V99.02H53.751V106ZM59.5922 99.03V99.77H57.6922V106H56.7822V99.77H54.8722V99.03H59.5922ZM22.6254 119.45H19.5854L19.0254 121H18.0654L20.5854 114.07H21.6354L24.1454 121H23.1854L22.6254 119.45ZM22.3654 118.71L21.1054 115.19L19.8454 118.71H22.3654ZM31.0036 114.03L28.3736 121H27.3236L24.6936 114.03H25.6636L27.8536 120.04L30.0436 114.03H31.0036ZM32.9114 114.77V117.1H35.4514V117.85H32.9114V120.25H35.7514V121H32.0014V114.02H35.7514V114.77H32.9114ZM42.6084 121H41.6984L38.0384 115.45V121H37.1284V114.02H38.0384L41.6984 119.56V114.02H42.6084V121ZM45.0496 114.03V118.44C45.0496 119.06 45.1996 119.52 45.4996 119.82C45.8063 120.12 46.2296 120.27 46.7696 120.27C47.303 120.27 47.7196 120.12 48.0196 119.82C48.3263 119.52 48.4796 119.06 48.4796 118.44V114.03H49.3896V118.43C49.3896 119.01 49.273 119.5 49.0396 119.9C48.8063 120.293 48.4896 120.587 48.0896 120.78C47.6963 120.973 47.253 121.07 46.7596 121.07C46.2663 121.07 45.8196 120.973 45.4196 120.78C45.0263 120.587 44.713 120.293 44.4796 119.9C44.253 119.5 44.1396 119.01 44.1396 118.43V114.03H45.0496ZM51.8177 114.77V117.1H54.3577V117.85H51.8177V120.25H54.6577V121H50.9077V114.02H54.6577V114.77H51.8177Z" fill="black"/>
</svg>
