<svg width="146" height="74" viewBox="0 0 146 74" fill="none" xmlns="http://www.w3.org/2000/svg">
<rect x="144.57" y="1.07468" width="71.7851" height="143.57" transform="rotate(90 144.57 1.07468)" fill="#C7E6CF" stroke="black"/>
<rect x="109" y="1" width="35.8925" height="71.7851" fill="#F7A900" stroke="black"/>
<path d="M33.9712 30.1379C33.5112 30.1379 33.0978 30.0579 32.7312 29.8979C32.3712 29.7312 32.0878 29.5046 31.8812 29.2179C31.6745 28.9246 31.5678 28.5879 31.5612 28.2079H32.5312C32.5645 28.5346 32.6978 28.8112 32.9312 29.0379C33.1712 29.2579 33.5178 29.3679 33.9712 29.3679C34.4045 29.3679 34.7445 29.2612 34.9912 29.0479C35.2445 28.8279 35.3712 28.5479 35.3712 28.2079C35.3712 27.9412 35.2978 27.7246 35.1512 27.5579C35.0045 27.3912 34.8212 27.2646 34.6012 27.1779C34.3812 27.0912 34.0845 26.9979 33.7112 26.8979C33.2512 26.7779 32.8812 26.6579 32.6012 26.5379C32.3278 26.4179 32.0912 26.2312 31.8912 25.9779C31.6978 25.7179 31.6012 25.3712 31.6012 24.9379C31.6012 24.5579 31.6978 24.2212 31.8912 23.9279C32.0845 23.6346 32.3545 23.4079 32.7012 23.2479C33.0545 23.0879 33.4578 23.0079 33.9112 23.0079C34.5645 23.0079 35.0978 23.1712 35.5112 23.4979C35.9312 23.8246 36.1678 24.2579 36.2212 24.7979H35.2212C35.1878 24.5312 35.0478 24.2979 34.8012 24.0979C34.5545 23.8912 34.2278 23.7879 33.8212 23.7879C33.4412 23.7879 33.1312 23.8879 32.8912 24.0879C32.6512 24.2812 32.5312 24.5546 32.5312 24.9079C32.5312 25.1612 32.6012 25.3679 32.7412 25.5279C32.8878 25.6879 33.0645 25.8112 33.2712 25.8979C33.4845 25.9779 33.7812 26.0712 34.1612 26.1779C34.6212 26.3046 34.9912 26.4312 35.2712 26.5579C35.5512 26.6779 35.7912 26.8679 35.9912 27.1279C36.1912 27.3812 36.2912 27.7279 36.2912 28.1679C36.2912 28.5079 36.2012 28.8279 36.0212 29.1279C35.8412 29.4279 35.5745 29.6712 35.2212 29.8579C34.8678 30.0446 34.4512 30.1379 33.9712 30.1379ZM41.9203 23.0979V23.8379H40.0203V30.0679H39.1103V23.8379H37.2003V23.0979H41.9203ZM43.3305 30.1279C43.1571 30.1279 43.0105 30.0679 42.8905 29.9479C42.7705 29.8279 42.7105 29.6812 42.7105 29.5079C42.7105 29.3346 42.7705 29.1879 42.8905 29.0679C43.0105 28.9479 43.1571 28.8879 43.3305 28.8879C43.4971 28.8879 43.6371 28.9479 43.7505 29.0679C43.8705 29.1879 43.9305 29.3346 43.9305 29.5079C43.9305 29.6812 43.8705 29.8279 43.7505 29.9479C43.6371 30.0679 43.4971 30.1279 43.3305 30.1279ZM51.3161 23.0979V28.2479C51.3161 28.8212 51.1394 29.2812 50.7861 29.6279C50.4328 29.9679 49.9661 30.1379 49.3861 30.1379C48.7994 30.1379 48.3294 29.9646 47.9761 29.6179C47.6228 29.2646 47.4461 28.7846 47.4461 28.1779H48.3561C48.3628 28.5179 48.4494 28.7946 48.6161 29.0079C48.7894 29.2212 49.0461 29.3279 49.3861 29.3279C49.7261 29.3279 49.9794 29.2279 50.1461 29.0279C50.3128 28.8212 50.3961 28.5612 50.3961 28.2479V23.0979H51.3161ZM57.2288 28.5179H54.1888L53.6288 30.0679H52.6688L55.1888 23.1379H56.2388L58.7488 30.0679H57.7888L57.2288 28.5179ZM56.9688 27.7779L55.7088 24.2579L54.4488 27.7779H56.9688ZM66.9171 23.1479V30.0679H66.0071V24.9079L63.7071 30.0679H63.0671L60.7571 24.8979V30.0679H59.8471V23.1479H60.8271L63.3871 28.8679L65.9471 23.1479H66.9171ZM69.3704 23.8379V26.1679H71.9104V26.9179H69.3704V29.3179H72.2104V30.0679H68.4604V23.0879H72.2104V23.8379H69.3704ZM75.7973 30.1379C75.3373 30.1379 74.924 30.0579 74.5573 29.8979C74.1973 29.7312 73.914 29.5046 73.7073 29.2179C73.5007 28.9246 73.394 28.5879 73.3873 28.2079H74.3573C74.3907 28.5346 74.524 28.8112 74.7573 29.0379C74.9973 29.2579 75.344 29.3679 75.7973 29.3679C76.2307 29.3679 76.5707 29.2612 76.8173 29.0479C77.0707 28.8279 77.1973 28.5479 77.1973 28.2079C77.1973 27.9412 77.124 27.7246 76.9773 27.5579C76.8307 27.3912 76.6473 27.2646 76.4273 27.1779C76.2073 27.0912 75.9107 26.9979 75.5373 26.8979C75.0773 26.7779 74.7073 26.6579 74.4273 26.5379C74.154 26.4179 73.9173 26.2312 73.7173 25.9779C73.524 25.7179 73.4273 25.3712 73.4273 24.9379C73.4273 24.5579 73.524 24.2212 73.7173 23.9279C73.9107 23.6346 74.1807 23.4079 74.5273 23.2479C74.8807 23.0879 75.284 23.0079 75.7373 23.0079C76.3907 23.0079 76.924 23.1712 77.3373 23.4979C77.7573 23.8246 77.994 24.2579 78.0473 24.7979H77.0473C77.014 24.5312 76.874 24.2979 76.6273 24.0979C76.3807 23.8912 76.054 23.7879 75.6473 23.7879C75.2673 23.7879 74.9573 23.8879 74.7173 24.0879C74.4773 24.2812 74.3573 24.5546 74.3573 24.9079C74.3573 25.1612 74.4273 25.3679 74.5673 25.5279C74.714 25.6879 74.8907 25.8112 75.0973 25.8979C75.3107 25.9779 75.6073 26.0712 75.9873 26.1779C76.4473 26.3046 76.8173 26.4312 77.0973 26.5579C77.3773 26.6779 77.6173 26.8679 77.8173 27.1279C78.0173 27.3812 78.1173 27.7279 78.1173 28.1679C78.1173 28.5079 78.0273 28.8279 77.8473 29.1279C77.6673 29.4279 77.4007 29.6712 77.0473 29.8579C76.694 30.0446 76.2773 30.1379 75.7973 30.1379ZM45.4202 40.1379C45.4202 40.7179 45.2202 41.2012 44.8202 41.5879C44.4269 41.9679 43.8235 42.1579 43.0102 42.1579H41.6702V45.0679H40.7602V38.0979H43.0102C43.7969 38.0979 44.3935 38.2879 44.8002 38.6679C45.2135 39.0479 45.4202 39.5379 45.4202 40.1379ZM43.0102 41.4079C43.5169 41.4079 43.8902 41.2979 44.1302 41.0779C44.3702 40.8579 44.4902 40.5446 44.4902 40.1379C44.4902 39.2779 43.9969 38.8479 43.0102 38.8479H41.6702V41.4079H43.0102ZM47.4612 44.3279H49.9012V45.0679H46.5512V38.0979H47.4612V44.3279ZM54.9876 43.5179H51.9476L51.3876 45.0679H50.4276L52.9476 38.1379H53.9976L56.5076 45.0679H55.5476L54.9876 43.5179ZM54.7276 42.7779L53.4676 39.2579L52.2076 42.7779H54.7276ZM57.2659 41.5779C57.2659 40.8979 57.4192 40.2879 57.7259 39.7479C58.0326 39.2012 58.4492 38.7746 58.9759 38.4679C59.5092 38.1612 60.0992 38.0079 60.7459 38.0079C61.5059 38.0079 62.1692 38.1912 62.7359 38.5579C63.3026 38.9246 63.7159 39.4446 63.9759 40.1179H62.8859C62.6926 39.6979 62.4126 39.3746 62.0459 39.1479C61.6859 38.9212 61.2526 38.8079 60.7459 38.8079C60.2592 38.8079 59.8226 38.9212 59.4359 39.1479C59.0492 39.3746 58.7459 39.6979 58.5259 40.1179C58.3059 40.5312 58.1959 41.0179 58.1959 41.5779C58.1959 42.1312 58.3059 42.6179 58.5259 43.0379C58.7459 43.4512 59.0492 43.7712 59.4359 43.9979C59.8226 44.2246 60.2592 44.3379 60.7459 44.3379C61.2526 44.3379 61.6859 44.2279 62.0459 44.0079C62.4126 43.7812 62.6926 43.4579 62.8859 43.0379H63.9759C63.7159 43.7046 63.3026 44.2212 62.7359 44.5879C62.1692 44.9479 61.5059 45.1279 60.7459 45.1279C60.0992 45.1279 59.5092 44.9779 58.9759 44.6779C58.4492 44.3712 58.0326 43.9479 57.7259 43.4079C57.4192 42.8679 57.2659 42.2579 57.2659 41.5779ZM66.2405 38.8379V41.1679H68.7805V41.9179H66.2405V44.3179H69.0805V45.0679H65.3305V38.0879H69.0805V38.8379H66.2405Z" fill="black"/>
</svg>
