<svg width="146" height="73" viewBox="0 0 146 73" fill="none" xmlns="http://www.w3.org/2000/svg">
<rect x="144.57" y="0.495483" width="71.7851" height="143.57" transform="rotate(90 144.57 0.495483)" fill="#C7E6CF" stroke="black"/>
<rect x="108.678" y="0.495483" width="35.8925" height="71.7851" fill="#F257D0" stroke="black"/>
<path d="M40.4802 23.5934L37.8502 30.5634H36.8002L34.1702 23.5934H35.1402L37.3302 29.6034L39.5202 23.5934H40.4802ZM42.388 23.5934V30.5634H41.478V23.5934H42.388ZM47.6089 30.5634L45.9489 27.7134H44.8489V30.5634H43.9389V23.5934H46.1889C46.7156 23.5934 47.1589 23.6834 47.5189 23.8634C47.8856 24.0434 48.1589 24.2867 48.3389 24.5934C48.5189 24.9 48.6089 25.25 48.6089 25.6434C48.6089 26.1234 48.4689 26.5467 48.1889 26.9134C47.9156 27.28 47.5022 27.5234 46.9489 27.6434L48.6989 30.5634H47.6089ZM44.8489 26.9834H46.1889C46.6822 26.9834 47.0522 26.8634 47.2989 26.6234C47.5456 26.3767 47.6689 26.05 47.6689 25.6434C47.6689 25.23 47.5456 24.91 47.2989 24.6834C47.0589 24.4567 46.6889 24.3434 46.1889 24.3434H44.8489V26.9834ZM55.3029 25.6134C55.1096 25.2067 54.8296 24.8934 54.4629 24.6734C54.0962 24.4467 53.6696 24.3334 53.1829 24.3334C52.6962 24.3334 52.2562 24.4467 51.8629 24.6734C51.4762 24.8934 51.1696 25.2134 50.9429 25.6334C50.7229 26.0467 50.6129 26.5267 50.6129 27.0734C50.6129 27.62 50.7229 28.1 50.9429 28.5134C51.1696 28.9267 51.4762 29.2467 51.8629 29.4734C52.2562 29.6934 52.6962 29.8034 53.1829 29.8034C53.8629 29.8034 54.4229 29.6 54.8629 29.1934C55.3029 28.7867 55.5596 28.2367 55.6329 27.5434H52.8529V26.8034H56.6029V27.5034C56.5496 28.0767 56.3696 28.6034 56.0629 29.0834C55.7562 29.5567 55.3529 29.9334 54.8529 30.2134C54.3529 30.4867 53.7962 30.6234 53.1829 30.6234C52.5362 30.6234 51.9462 30.4734 51.4129 30.1734C50.8796 29.8667 50.4562 29.4434 50.1429 28.9034C49.8362 28.3634 49.6829 27.7534 49.6829 27.0734C49.6829 26.3934 49.8362 25.7834 50.1429 25.2434C50.4562 24.6967 50.8796 24.2734 51.4129 23.9734C51.9462 23.6667 52.5362 23.5134 53.1829 23.5134C53.9229 23.5134 54.5762 23.6967 55.1429 24.0634C55.7162 24.43 56.1329 24.9467 56.3929 25.6134H55.3029ZM58.7161 23.5934V30.5634H57.8061V23.5934H58.7161ZM65.747 30.5634H64.837L61.177 25.0134V30.5634H60.267V23.5834H61.177L64.837 29.1234V23.5834H65.747V30.5634ZM68.2083 23.5934V30.5634H67.2983V23.5934H68.2083ZM73.8792 29.0134H70.8392L70.2792 30.5634H69.3192L71.8392 23.6334H72.8892L75.3992 30.5634H74.4392L73.8792 29.0134ZM73.6192 28.2734L72.3592 24.7534L71.0992 28.2734H73.6192ZM40.9642 44.0134H37.9242L37.3642 45.5634H36.4042L38.9242 38.6334H39.9742L42.4842 45.5634H41.5242L40.9642 44.0134ZM40.7042 43.2734L39.4442 39.7534L38.1842 43.2734H40.7042ZM49.3425 38.5934L46.7125 45.5634H45.6625L43.0325 38.5934H44.0025L46.1925 44.6034L48.3825 38.5934H49.3425ZM51.2503 39.3334V41.6634H53.7903V42.4134H51.2503V44.8134H54.0903V45.5634H50.3403V38.5834H54.0903V39.3334H51.2503ZM60.9472 45.5634H60.0372L56.3772 40.0134V45.5634H55.4672V38.5834H56.3772L60.0372 44.1234V38.5834H60.9472V45.5634ZM63.3885 38.5934V43.0034C63.3885 43.6234 63.5385 44.0834 63.8385 44.3834C64.1451 44.6834 64.5685 44.8334 65.1085 44.8334C65.6418 44.8334 66.0585 44.6834 66.3585 44.3834C66.6651 44.0834 66.8185 43.6234 66.8185 43.0034V38.5934H67.7285V42.9934C67.7285 43.5734 67.6118 44.0634 67.3785 44.4634C67.1451 44.8567 66.8285 45.15 66.4285 45.3434C66.0351 45.5367 65.5918 45.6334 65.0985 45.6334C64.6051 45.6334 64.1585 45.5367 63.7585 45.3434C63.3651 45.15 63.0518 44.8567 62.8185 44.4634C62.5918 44.0634 62.4785 43.5734 62.4785 42.9934V38.5934H63.3885ZM70.1565 39.3334V41.6634H72.6965V42.4134H70.1565V44.8134H72.9965V45.5634H69.2465V38.5834H72.9965V39.3334H70.1565Z" fill="black"/>
</svg>
