<svg width="146" height="74" viewBox="0 0 146 74" fill="none" xmlns="http://www.w3.org/2000/svg">
<rect x="144.57" y="1" width="71.7851" height="143.57" transform="rotate(90 144.57 1)" fill="#C7E6CF" stroke="black"/>
<rect x="108.678" y="0.850647" width="35.8925" height="71.7851" fill="#F257D0" stroke="black"/>
<path d="M31.2089 30.9885C30.7489 30.9885 30.3355 30.9085 29.9689 30.7485C29.6089 30.5819 29.3255 30.3552 29.1189 30.0685C28.9122 29.7752 28.8055 29.4385 28.7989 29.0585H29.7689C29.8022 29.3852 29.9355 29.6619 30.1689 29.8885C30.4089 30.1085 30.7555 30.2185 31.2089 30.2185C31.6422 30.2185 31.9822 30.1119 32.2289 29.8985C32.4822 29.6785 32.6089 29.3985 32.6089 29.0585C32.6089 28.7919 32.5355 28.5752 32.3889 28.4085C32.2422 28.2419 32.0589 28.1152 31.8389 28.0285C31.6189 27.9419 31.3222 27.8485 30.9489 27.7485C30.4889 27.6285 30.1189 27.5085 29.8389 27.3885C29.5655 27.2685 29.3289 27.0819 29.1289 26.8285C28.9355 26.5685 28.8389 26.2219 28.8389 25.7885C28.8389 25.4085 28.9355 25.0719 29.1289 24.7785C29.3222 24.4852 29.5922 24.2585 29.9389 24.0985C30.2922 23.9385 30.6955 23.8585 31.1489 23.8585C31.8022 23.8585 32.3355 24.0219 32.7489 24.3485C33.1689 24.6752 33.4055 25.1085 33.4589 25.6485H32.4589C32.4255 25.3819 32.2855 25.1485 32.0389 24.9485C31.7922 24.7419 31.4655 24.6385 31.0589 24.6385C30.6789 24.6385 30.3689 24.7385 30.1289 24.9385C29.8889 25.1319 29.7689 25.4052 29.7689 25.7585C29.7689 26.0119 29.8389 26.2185 29.9789 26.3785C30.1255 26.5385 30.3022 26.6619 30.5089 26.7485C30.7222 26.8285 31.0189 26.9219 31.3989 27.0285C31.8589 27.1552 32.2289 27.2819 32.5089 27.4085C32.7889 27.5285 33.0289 27.7185 33.2289 27.9785C33.4289 28.2319 33.5289 28.5785 33.5289 29.0185C33.5289 29.3585 33.4389 29.6785 33.2589 29.9785C33.0789 30.2785 32.8122 30.5219 32.4589 30.7085C32.1055 30.8952 31.6889 30.9885 31.2089 30.9885ZM39.158 23.9485V24.6885H37.258V30.9185H36.348V24.6885H34.438V23.9485H39.158ZM40.5682 30.9785C40.3948 30.9785 40.2482 30.9185 40.1282 30.7985C40.0082 30.6785 39.9482 30.5319 39.9482 30.3585C39.9482 30.1852 40.0082 30.0385 40.1282 29.9185C40.2482 29.7985 40.3948 29.7385 40.5682 29.7385C40.7348 29.7385 40.8748 29.7985 40.9882 29.9185C41.1082 30.0385 41.1682 30.1852 41.1682 30.3585C41.1682 30.5319 41.1082 30.6785 40.9882 30.7985C40.8748 30.9185 40.7348 30.9785 40.5682 30.9785ZM44.7038 27.4285C44.7038 26.7485 44.8571 26.1385 45.1638 25.5985C45.4705 25.0519 45.8871 24.6252 46.4138 24.3185C46.9471 24.0119 47.5371 23.8585 48.1838 23.8585C48.9438 23.8585 49.6071 24.0419 50.1738 24.4085C50.7405 24.7752 51.1538 25.2952 51.4138 25.9685H50.3238C50.1305 25.5485 49.8505 25.2252 49.4838 24.9985C49.1238 24.7719 48.6905 24.6585 48.1838 24.6585C47.6971 24.6585 47.2605 24.7719 46.8738 24.9985C46.4871 25.2252 46.1838 25.5485 45.9638 25.9685C45.7438 26.3819 45.6338 26.8685 45.6338 27.4285C45.6338 27.9819 45.7438 28.4685 45.9638 28.8885C46.1838 29.3019 46.4871 29.6219 46.8738 29.8485C47.2605 30.0752 47.6971 30.1885 48.1838 30.1885C48.6905 30.1885 49.1238 30.0785 49.4838 29.8585C49.8505 29.6319 50.1305 29.3085 50.3238 28.8885H51.4138C51.1538 29.5552 50.7405 30.0719 50.1738 30.4385C49.6071 30.7985 48.9438 30.9785 48.1838 30.9785C47.5371 30.9785 46.9471 30.8285 46.4138 30.5285C45.8871 30.2219 45.4705 29.7985 45.1638 29.2585C44.8571 28.7185 44.7038 28.1085 44.7038 27.4285ZM58.1384 23.9485V30.9185H57.2284V27.7585H53.6784V30.9185H52.7684V23.9485H53.6784V27.0085H57.2284V23.9485H58.1384ZM63.8122 29.3685H60.7722L60.2122 30.9185H59.2522L61.7722 23.9885H62.8222L65.3322 30.9185H64.3722L63.8122 29.3685ZM63.5522 28.6285L62.2922 25.1085L61.0322 28.6285H63.5522ZM70.1005 30.9185L68.4405 28.0685H67.3405V30.9185H66.4305V23.9485H68.6805C69.2072 23.9485 69.6505 24.0385 70.0105 24.2185C70.3772 24.3985 70.6505 24.6419 70.8305 24.9485C71.0105 25.2552 71.1005 25.6052 71.1005 25.9985C71.1005 26.4785 70.9605 26.9019 70.6805 27.2685C70.4072 27.6352 69.9938 27.8785 69.4405 27.9985L71.1905 30.9185H70.1005ZM67.3405 27.3385H68.6805C69.1738 27.3385 69.5438 27.2185 69.7905 26.9785C70.0372 26.7319 70.1605 26.4052 70.1605 25.9985C70.1605 25.5852 70.0372 25.2652 69.7905 25.0385C69.5505 24.8119 69.1805 24.6985 68.6805 24.6985H67.3405V27.3385ZM73.4245 30.1785H75.8645V30.9185H72.5145V23.9485H73.4245V30.1785ZM77.7409 24.6885V27.0185H80.2809V27.7685H77.7409V30.1685H80.5809V30.9185H76.8309V23.9385H80.5809V24.6885H77.7409ZM84.1679 30.9885C83.7079 30.9885 83.2945 30.9085 82.9279 30.7485C82.5679 30.5819 82.2845 30.3552 82.0779 30.0685C81.8712 29.7752 81.7645 29.4385 81.7579 29.0585H82.7279C82.7612 29.3852 82.8945 29.6619 83.1279 29.8885C83.3679 30.1085 83.7145 30.2185 84.1679 30.2185C84.6012 30.2185 84.9412 30.1119 85.1879 29.8985C85.4412 29.6785 85.5679 29.3985 85.5679 29.0585C85.5679 28.7919 85.4945 28.5752 85.3479 28.4085C85.2012 28.2419 85.0179 28.1152 84.7979 28.0285C84.5779 27.9419 84.2812 27.8485 83.9079 27.7485C83.4479 27.6285 83.0779 27.5085 82.7979 27.3885C82.5245 27.2685 82.2879 27.0819 82.0879 26.8285C81.8945 26.5685 81.7979 26.2219 81.7979 25.7885C81.7979 25.4085 81.8945 25.0719 82.0879 24.7785C82.2812 24.4852 82.5512 24.2585 82.8979 24.0985C83.2512 23.9385 83.6545 23.8585 84.1079 23.8585C84.7612 23.8585 85.2945 24.0219 85.7079 24.3485C86.1279 24.6752 86.3645 25.1085 86.4179 25.6485H85.4179C85.3845 25.3819 85.2445 25.1485 84.9979 24.9485C84.7512 24.7419 84.4245 24.6385 84.0179 24.6385C83.6379 24.6385 83.3279 24.7385 83.0879 24.9385C82.8479 25.1319 82.7279 25.4052 82.7279 25.7585C82.7279 26.0119 82.7979 26.2185 82.9379 26.3785C83.0845 26.5385 83.2612 26.6619 83.4679 26.7485C83.6812 26.8285 83.9779 26.9219 84.3579 27.0285C84.8179 27.1552 85.1879 27.2819 85.4679 27.4085C85.7479 27.5285 85.9879 27.7185 86.1879 27.9785C86.3879 28.2319 86.4879 28.5785 86.4879 29.0185C86.4879 29.3585 86.3979 29.6785 86.2179 29.9785C86.0379 30.2785 85.7712 30.5219 85.4179 30.7085C85.0645 30.8952 84.6479 30.9885 84.1679 30.9885ZM48.2243 40.9885C48.2243 41.5685 48.0243 42.0519 47.6243 42.4385C47.231 42.8185 46.6276 43.0085 45.8143 43.0085H44.4743V45.9185H43.5643V38.9485H45.8143C46.601 38.9485 47.1976 39.1385 47.6043 39.5185C48.0176 39.8985 48.2243 40.3885 48.2243 40.9885ZM45.8143 42.2585C46.321 42.2585 46.6943 42.1485 46.9343 41.9285C47.1743 41.7085 47.2943 41.3952 47.2943 40.9885C47.2943 40.1285 46.801 39.6985 45.8143 39.6985H44.4743V42.2585H45.8143ZM50.2653 45.1785H52.7053V45.9185H49.3553V38.9485H50.2653V45.1785ZM57.7917 44.3685H54.7517L54.1917 45.9185H53.2317L55.7517 38.9885H56.8017L59.3117 45.9185H58.3517L57.7917 44.3685ZM57.5317 43.6285L56.2717 40.1085L55.0117 43.6285H57.5317ZM60.07 42.4285C60.07 41.7485 60.2233 41.1385 60.53 40.5985C60.8367 40.0519 61.2533 39.6252 61.78 39.3185C62.3133 39.0119 62.9033 38.8585 63.55 38.8585C64.31 38.8585 64.9733 39.0419 65.54 39.4085C66.1067 39.7752 66.52 40.2952 66.78 40.9685H65.69C65.4967 40.5485 65.2167 40.2252 64.85 39.9985C64.49 39.7719 64.0567 39.6585 63.55 39.6585C63.0633 39.6585 62.6267 39.7719 62.24 39.9985C61.8533 40.2252 61.55 40.5485 61.33 40.9685C61.11 41.3819 61 41.8685 61 42.4285C61 42.9819 61.11 43.4685 61.33 43.8885C61.55 44.3019 61.8533 44.6219 62.24 44.8485C62.6267 45.0752 63.0633 45.1885 63.55 45.1885C64.0567 45.1885 64.49 45.0785 64.85 44.8585C65.2167 44.6319 65.4967 44.3085 65.69 43.8885H66.78C66.52 44.5552 66.1067 45.0719 65.54 45.4385C64.9733 45.7985 64.31 45.9785 63.55 45.9785C62.9033 45.9785 62.3133 45.8285 61.78 45.5285C61.2533 45.2219 60.8367 44.7985 60.53 44.2585C60.2233 43.7185 60.07 43.1085 60.07 42.4285ZM69.0446 39.6885V42.0185H71.5846V42.7685H69.0446V45.1685H71.8846V45.9185H68.1346V38.9385H71.8846V39.6885H69.0446Z" fill="black"/>
</svg>
