<svg width="146" height="74" viewBox="0 0 146 74" fill="none" xmlns="http://www.w3.org/2000/svg">
<rect x="144.57" y="1.42987" width="71.7851" height="143.57" transform="rotate(90 144.57 1.42987)" fill="#C7E6CF" stroke="black"/>
<rect x="108.678" y="1" width="35.8925" height="71.7851" fill="#F7A900" stroke="black"/>
<path d="M35.913 31.0679H35.003L31.343 25.5179V31.0679H30.433V24.0879H31.343L35.003 29.6279V24.0879H35.913V31.0679ZM38.3743 24.8379V27.1679H40.9143V27.9179H38.3743V30.3179H41.2143V31.0679H37.4643V24.0879H41.2143V24.8379H38.3743ZM51.3512 24.0979L49.3312 31.0679H48.3112L46.6912 25.4579L45.0112 31.0679L44.0012 31.0779L42.0512 24.0979H43.0212L44.5412 30.0079L46.2212 24.0979H47.2412L48.8412 29.9879L50.3712 24.0979H51.3512ZM59.8931 24.0979L57.6231 28.4379V31.0679H56.7131V28.4379L54.4331 24.0979H55.4431L57.1631 27.6279L58.8831 24.0979H59.8931ZM64.013 31.1379C63.3663 31.1379 62.7763 30.9879 62.243 30.6879C61.7096 30.3812 61.2863 29.9579 60.973 29.4179C60.6663 28.8712 60.513 28.2579 60.513 27.5779C60.513 26.8979 60.6663 26.2879 60.973 25.7479C61.2863 25.2012 61.7096 24.7779 62.243 24.4779C62.7763 24.1712 63.3663 24.0179 64.013 24.0179C64.6663 24.0179 65.2596 24.1712 65.793 24.4779C66.3263 24.7779 66.7463 25.1979 67.053 25.7379C67.3596 26.2779 67.513 26.8912 67.513 27.5779C67.513 28.2646 67.3596 28.8779 67.053 29.4179C66.7463 29.9579 66.3263 30.3812 65.793 30.6879C65.2596 30.9879 64.6663 31.1379 64.013 31.1379ZM64.013 30.3479C64.4996 30.3479 64.9363 30.2346 65.323 30.0079C65.7163 29.7812 66.023 29.4579 66.243 29.0379C66.4696 28.6179 66.583 28.1312 66.583 27.5779C66.583 27.0179 66.4696 26.5312 66.243 26.1179C66.023 25.6979 65.7196 25.3746 65.333 25.1479C64.9463 24.9212 64.5063 24.8079 64.013 24.8079C63.5196 24.8079 63.0796 24.9212 62.693 25.1479C62.3063 25.3746 61.9996 25.6979 61.773 26.1179C61.553 26.5312 61.443 27.0179 61.443 27.5779C61.443 28.1312 61.553 28.6179 61.773 29.0379C61.9996 29.4579 62.3063 29.7812 62.693 30.0079C63.0863 30.2346 63.5263 30.3479 64.013 30.3479ZM72.3843 31.0679L70.7243 28.2179H69.6243V31.0679H68.7143V24.0979H70.9643C71.491 24.0979 71.9343 24.1879 72.2943 24.3679C72.661 24.5479 72.9343 24.7912 73.1143 25.0979C73.2943 25.4046 73.3843 25.7546 73.3843 26.1479C73.3843 26.6279 73.2443 27.0512 72.9643 27.4179C72.691 27.7846 72.2776 28.0279 71.7243 28.1479L73.4743 31.0679H72.3843ZM69.6243 27.4879H70.9643C71.4576 27.4879 71.8276 27.3679 72.0743 27.1279C72.321 26.8812 72.4443 26.5546 72.4443 26.1479C72.4443 25.7346 72.321 25.4146 72.0743 25.1879C71.8343 24.9612 71.4643 24.8479 70.9643 24.8479H69.6243V27.4879ZM78.5783 31.0679L75.7083 27.8879V31.0679H74.7983V24.0979H75.7083V27.3279L78.5883 24.0979H79.7383L76.5783 27.5879L79.7683 31.0679H78.5783ZM40.9642 44.5179H37.9242L37.3642 46.0679H36.4042L38.9242 39.1379H39.9742L42.4842 46.0679H41.5242L40.9642 44.5179ZM40.7042 43.7779L39.4442 40.2579L38.1842 43.7779H40.7042ZM49.3425 39.0979L46.7125 46.0679H45.6625L43.0325 39.0979H44.0025L46.1925 45.1079L48.3825 39.0979H49.3425ZM51.2503 39.8379V42.1679H53.7903V42.9179H51.2503V45.3179H54.0903V46.0679H50.3403V39.0879H54.0903V39.8379H51.2503ZM60.9472 46.0679H60.0372L56.3772 40.5179V46.0679H55.4672V39.0879H56.3772L60.0372 44.6279V39.0879H60.9472V46.0679ZM63.3885 39.0979V43.5079C63.3885 44.1279 63.5385 44.5879 63.8385 44.8879C64.1451 45.1879 64.5685 45.3379 65.1085 45.3379C65.6418 45.3379 66.0585 45.1879 66.3585 44.8879C66.6651 44.5879 66.8185 44.1279 66.8185 43.5079V39.0979H67.7285V43.4979C67.7285 44.0779 67.6118 44.5679 67.3785 44.9679C67.1451 45.3612 66.8285 45.6546 66.4285 45.8479C66.0351 46.0412 65.5918 46.1379 65.0985 46.1379C64.6051 46.1379 64.1585 46.0412 63.7585 45.8479C63.3651 45.6546 63.0518 45.3612 62.8185 44.9679C62.5918 44.5679 62.4785 44.0779 62.4785 43.4979V39.0979H63.3885ZM70.1565 39.8379V42.1679H72.6965V42.9179H70.1565V45.3179H72.9965V46.0679H69.2465V39.0879H72.9965V39.8379H70.1565Z" fill="black"/>
</svg>
