<svg width="145" height="145" viewBox="0 0 145 145" fill="none" xmlns="http://www.w3.org/2000/svg">
<rect x="0.635742" y="0.635681" width="143.57" height="143.57" fill="#C7E6CF" stroke="black"/>
<path d="M26.3828 64.1535C26.1713 64.1535 26.1184 64.0478 26.2242 63.8893L27.3348 62.4626C27.4405 62.304 27.705 62.1984 27.9165 62.1984H46.7971C47.0087 62.1984 47.0616 62.3569 46.9558 62.5154L46.0567 63.8893C45.9509 64.0478 45.6865 64.2063 45.5278 64.2063L26.3828 64.1535Z" fill="black"/>
<path d="M18.3969 69.015C18.1853 69.015 18.1324 68.9093 18.2382 68.7508L19.3488 67.324C19.4546 67.1655 19.719 67.0598 19.9306 67.0598H44.047C44.2585 67.0598 44.3643 67.2183 44.3114 67.3769L43.8883 68.6451C43.8354 68.8564 43.6239 68.9621 43.4123 68.9621L18.3969 69.015Z" fill="black"/>
<path d="M31.1954 73.8764C30.9839 73.8764 30.931 73.7179 31.0368 73.5594L31.7772 72.2383C31.883 72.0798 32.0945 71.9213 32.3061 71.9213H42.8834C43.095 71.9213 43.2007 72.0798 43.2007 72.2912L43.095 73.5594C43.095 73.7707 42.8834 73.9293 42.7248 73.9293L31.1954 73.8764Z" fill="black"/>
<path d="M86.092 63.2024C82.7601 64.0479 80.486 64.6819 77.207 65.5274C76.4137 65.7388 76.3608 65.7916 75.6732 64.999C74.8799 64.1007 74.2982 63.5194 73.1876 62.991C69.8557 61.3529 66.6296 61.8285 63.615 63.7836C60.0187 66.1087 58.1677 69.5434 58.2206 73.8236C58.2735 78.0509 61.1823 81.5385 65.3603 82.1197C68.9566 82.5953 71.9712 81.3271 74.3511 78.6322C74.8271 78.0509 75.2502 77.4168 75.779 76.677C73.8751 76.677 71.4952 76.677 65.5719 76.677C64.4612 76.677 64.1968 75.9901 64.567 75.0918C65.2545 73.4537 66.5238 70.7059 67.2642 69.332C67.4229 69.015 67.7931 68.4866 68.5864 68.4866C71.2836 68.4866 81.2264 68.4866 87.8372 68.4866C87.7314 69.9133 87.7314 71.34 87.5199 72.7667C86.9381 76.5714 85.5102 80.0589 83.1832 83.1237C79.3753 88.1437 74.404 91.2614 68.1104 92.1068C62.9275 92.7938 58.1148 91.7898 53.8839 88.6193C49.9702 85.6601 47.749 81.7498 47.1672 76.8884C46.4797 71.1286 48.1721 65.9502 51.6626 61.4058C55.4176 56.4915 60.389 53.3738 66.4709 52.2641C71.4423 51.3658 76.2021 51.9471 80.486 54.8534C83.289 56.7028 85.2987 59.2392 86.6208 62.3041C86.9381 62.7796 86.7266 63.0439 86.092 63.2024Z" fill="black"/>
<path d="M103.597 92.4239C98.7848 92.3182 94.3952 90.9443 90.6931 87.7738C87.5728 85.0789 85.616 81.6442 84.9813 77.5754C84.0293 71.6042 85.6688 66.3201 89.2651 61.6171C93.1259 56.5443 97.7799 53.9022 104.073 52.7926C109.468 51.8414 114.545 52.3698 119.146 55.4875C123.324 58.3409 125.916 62.1984 126.603 67.2712C127.502 74.4048 125.44 80.2174 120.521 85.1846C117.031 88.725 112.747 90.9443 107.828 91.9483C106.4 92.2125 104.973 92.2654 103.597 92.4239ZM116.185 71.0758C116.132 70.3889 116.132 69.8605 116.026 69.332C115.074 64.1007 110.261 61.1416 105.237 62.3041C100.318 63.4138 97.1453 66.5314 95.9818 71.4986C95.0298 75.6202 97.0395 79.7947 100.847 81.4856C103.756 82.7538 106.665 82.5953 109.468 81.1686C113.646 79.0021 115.92 75.6202 116.185 71.0758Z" fill="black"/>
</svg>
