<svg width="145" height="73" viewBox="0 0 145 73" fill="none" xmlns="http://www.w3.org/2000/svg">
<rect x="144.206" y="0.570129" width="71.7851" height="143.57" transform="rotate(90 144.206 0.570129)" fill="#C7E6CF" stroke="black"/>
<path d="M77.949 25.708C77.949 26.288 77.749 26.7714 77.349 27.158C76.9557 27.538 76.3523 27.728 75.539 27.728H74.199V30.638H73.289V23.668H75.539C76.3257 23.668 76.9223 23.858 77.329 24.238C77.7423 24.618 77.949 25.108 77.949 25.708ZM75.539 26.978C76.0457 26.978 76.419 26.868 76.659 26.648C76.899 26.428 77.019 26.1147 77.019 25.708C77.019 24.848 76.5257 24.418 75.539 24.418H74.199V26.978H75.539ZM83.2 29.088H80.16L79.6 30.638H78.64L81.16 23.708H82.21L84.72 30.638H83.76L83.2 29.088ZM82.94 28.348L81.68 24.828L80.42 28.348H82.94ZM85.4783 27.148C85.4783 26.468 85.6316 25.858 85.9383 25.318C86.245 24.7714 86.6616 24.3447 87.1883 24.038C87.7216 23.7314 88.3116 23.578 88.9583 23.578C89.7183 23.578 90.3816 23.7614 90.9483 24.128C91.515 24.4947 91.9283 25.0147 92.1883 25.688H91.0983C90.905 25.268 90.625 24.9447 90.2583 24.718C89.8983 24.4914 89.465 24.378 88.9583 24.378C88.4716 24.378 88.035 24.4914 87.6483 24.718C87.2616 24.9447 86.9583 25.268 86.7383 25.688C86.5183 26.1014 86.4083 26.588 86.4083 27.148C86.4083 27.7014 86.5183 28.188 86.7383 28.608C86.9583 29.0214 87.2616 29.3414 87.6483 29.568C88.035 29.7947 88.4716 29.908 88.9583 29.908C89.465 29.908 89.8983 29.798 90.2583 29.578C90.625 29.3514 90.905 29.028 91.0983 28.608H92.1883C91.9283 29.2747 91.515 29.7914 90.9483 30.158C90.3816 30.518 89.7183 30.698 88.9583 30.698C88.3116 30.698 87.7216 30.548 87.1883 30.248C86.6616 29.9414 86.245 29.518 85.9383 28.978C85.6316 28.438 85.4783 27.828 85.4783 27.148ZM94.4529 23.668V30.638H93.5429V23.668H94.4529ZM99.9438 23.668V24.408H96.9138V26.758H99.3738V27.498H96.9138V30.638H96.0038V23.668H99.9438ZM101.953 23.668V30.638H101.043V23.668H101.953ZM103.164 27.148C103.164 26.468 103.317 25.858 103.624 25.318C103.931 24.7714 104.347 24.3447 104.874 24.038C105.407 23.7314 105.997 23.578 106.644 23.578C107.404 23.578 108.067 23.7614 108.634 24.128C109.201 24.4947 109.614 25.0147 109.874 25.688H108.784C108.591 25.268 108.311 24.9447 107.944 24.718C107.584 24.4914 107.151 24.378 106.644 24.378C106.157 24.378 105.721 24.4914 105.334 24.718C104.947 24.9447 104.644 25.268 104.424 25.688C104.204 26.1014 104.094 26.588 104.094 27.148C104.094 27.7014 104.204 28.188 104.424 28.608C104.644 29.0214 104.947 29.3414 105.334 29.568C105.721 29.7947 106.157 29.908 106.644 29.908C107.151 29.908 107.584 29.798 107.944 29.578C108.311 29.3514 108.591 29.028 108.784 28.608H109.874C109.614 29.2747 109.201 29.7914 108.634 30.158C108.067 30.518 107.404 30.698 106.644 30.698C105.997 30.698 105.407 30.548 104.874 30.248C104.347 29.9414 103.931 29.518 103.624 28.978C103.317 28.438 103.164 27.828 103.164 27.148ZM77.6141 44.088H74.5741L74.0141 45.638H73.0541L75.5741 38.708H76.6241L79.1341 45.638H78.1741L77.6141 44.088ZM77.3541 43.348L76.0941 39.828L74.8341 43.348H77.3541ZM85.9924 38.668L83.3624 45.638H82.3124L79.6824 38.668H80.6524L82.8424 44.678L85.0324 38.668H85.9924ZM87.9002 39.408V41.738H90.4402V42.488H87.9002V44.888H90.7402V45.638H86.9902V38.658H90.7402V39.408H87.9002ZM97.5971 45.638H96.6871L93.0271 40.088V45.638H92.1171V38.658H93.0271L96.6871 44.198V38.658H97.5971V45.638ZM100.038 38.668V43.078C100.038 43.698 100.188 44.158 100.488 44.458C100.795 44.758 101.218 44.908 101.758 44.908C102.292 44.908 102.708 44.758 103.008 44.458C103.315 44.158 103.468 43.698 103.468 43.078V38.668H104.378V43.068C104.378 43.648 104.262 44.138 104.028 44.538C103.795 44.9314 103.478 45.2247 103.078 45.418C102.685 45.6114 102.242 45.708 101.748 45.708C101.255 45.708 100.808 45.6114 100.408 45.418C100.015 45.2247 99.7017 44.9314 99.4684 44.538C99.2417 44.138 99.1284 43.648 99.1284 43.068V38.668H100.038ZM106.806 39.408V41.738H109.346V42.488H106.806V44.888H109.646V45.638H105.896V38.658H109.646V39.408H106.806Z" fill="black"/>
<rect x="0.635742" y="0.570129" width="35.8925" height="71.7851" fill="#099127" stroke="black"/>
</svg>
