<svg width="74" height="146" viewBox="0 0 74 146" fill="none" xmlns="http://www.w3.org/2000/svg">
<rect x="0.850586" y="1" width="71.7851" height="143.57" fill="#C7E6CF" stroke="black"/>
<path d="M25.7404 37.6076V44.5276H24.8304V39.3676L22.5304 44.5276H21.8904L19.5804 39.3576V44.5276H18.6704V37.6076H19.6504L22.2104 43.3276L24.7704 37.6076H25.7404ZM31.4036 42.9776H28.3636L27.8036 44.5276H26.8436L29.3636 37.5976H30.4136L32.9236 44.5276H31.9636L31.4036 42.9776ZM31.1436 42.2376L29.8836 38.7176L28.6236 42.2376H31.1436ZM37.6919 44.5276L36.0319 41.6776H34.9319V44.5276H34.0219V37.5576H36.2719C36.7986 37.5576 37.2419 37.6476 37.6019 37.8276C37.9686 38.0076 38.2419 38.2509 38.4219 38.5576C38.6019 38.8643 38.6919 39.2143 38.6919 39.6076C38.6919 40.0876 38.5519 40.5109 38.2719 40.8776C37.9986 41.2443 37.5852 41.4876 37.0319 41.6076L38.7819 44.5276H37.6919ZM34.9319 40.9476H36.2719C36.7652 40.9476 37.1352 40.8276 37.3819 40.5876C37.6286 40.3409 37.7519 40.0143 37.7519 39.6076C37.7519 39.1943 37.6286 38.8743 37.3819 38.6476C37.1419 38.4209 36.7719 38.3076 36.2719 38.3076H34.9319V40.9476ZM45.8659 37.5576L43.2359 44.5276H42.1859L39.5559 37.5576H40.5259L42.7159 43.5676L44.9059 37.5576H45.8659ZM47.7737 37.5576V44.5276H46.8637V37.5576H47.7737ZM54.8046 44.5276H53.8946L50.2346 38.9776V44.5276H49.3246V37.5476H50.2346L53.8946 43.0876V37.5476H54.8046V44.5276ZM19.9416 54.5776C19.7482 54.1709 19.4682 53.8576 19.1016 53.6376C18.7349 53.4109 18.3082 53.2976 17.8216 53.2976C17.3349 53.2976 16.8949 53.4109 16.5016 53.6376C16.1149 53.8576 15.8082 54.1776 15.5816 54.5976C15.3616 55.0109 15.2516 55.4909 15.2516 56.0376C15.2516 56.5843 15.3616 57.0643 15.5816 57.4776C15.8082 57.8909 16.1149 58.2109 16.5016 58.4376C16.8949 58.6576 17.3349 58.7676 17.8216 58.7676C18.5016 58.7676 19.0616 58.5643 19.5016 58.1576C19.9416 57.7509 20.1982 57.2009 20.2716 56.5076H17.4916V55.7676H21.2416V56.4676C21.1882 57.0409 21.0082 57.5676 20.7016 58.0476C20.3949 58.5209 19.9916 58.8976 19.4916 59.1776C18.9916 59.4509 18.4349 59.5876 17.8216 59.5876C17.1749 59.5876 16.5849 59.4376 16.0516 59.1376C15.5182 58.8309 15.0949 58.4076 14.7816 57.8676C14.4749 57.3276 14.3216 56.7176 14.3216 56.0376C14.3216 55.3576 14.4749 54.7476 14.7816 54.2076C15.0949 53.6609 15.5182 53.2376 16.0516 52.9376C16.5849 52.6309 17.1749 52.4776 17.8216 52.4776C18.5616 52.4776 19.2149 52.6609 19.7816 53.0276C20.3549 53.3943 20.7716 53.9109 21.0316 54.5776H19.9416ZM26.5648 57.9776H23.5248L22.9648 59.5276H22.0048L24.5248 52.5976H25.5748L28.0848 59.5276H27.1248L26.5648 57.9776ZM26.3048 57.2376L25.0448 53.7176L23.7848 57.2376H26.3048ZM32.853 59.5276L31.193 56.6776H30.093V59.5276H29.183V52.5576H31.433C31.9597 52.5576 32.403 52.6476 32.763 52.8276C33.1297 53.0076 33.403 53.2509 33.583 53.5576C33.763 53.8643 33.853 54.2143 33.853 54.6076C33.853 55.0876 33.713 55.5109 33.433 55.8776C33.1597 56.2443 32.7464 56.4876 32.193 56.6076L33.943 59.5276H32.853ZM30.093 55.9476H31.433C31.9264 55.9476 32.2964 55.8276 32.543 55.5876C32.7897 55.3409 32.913 55.0143 32.913 54.6076C32.913 54.1943 32.7897 53.8743 32.543 53.6476C32.303 53.4209 31.933 53.3076 31.433 53.3076H30.093V55.9476ZM37.437 52.5576C38.197 52.5576 38.8537 52.7009 39.407 52.9876C39.967 53.2676 40.3937 53.6709 40.687 54.1976C40.987 54.7243 41.137 55.3443 41.137 56.0576C41.137 56.7709 40.987 57.3909 40.687 57.9176C40.3937 58.4376 39.967 58.8376 39.407 59.1176C38.8537 59.3909 38.197 59.5276 37.437 59.5276H35.267V52.5576H37.437ZM37.437 58.7776C38.337 58.7776 39.0237 58.5409 39.497 58.0676C39.9704 57.5876 40.207 56.9176 40.207 56.0576C40.207 55.1909 39.967 54.5143 39.487 54.0276C39.0137 53.5409 38.3304 53.2976 37.437 53.2976H36.177V58.7776H37.437ZM43.2473 53.2976V55.6276H45.7873V56.3776H43.2473V58.7776H46.0873V59.5276H42.3373V52.5476H46.0873V53.2976H43.2473ZM52.9443 59.5276H52.0343L48.3743 53.9776V59.5276H47.4643V52.5476H48.3743L52.0343 58.0876V52.5476H52.9443V59.5276ZM56.7055 59.5976C56.2455 59.5976 55.8322 59.5176 55.4655 59.3576C55.1055 59.1909 54.8222 58.9643 54.6155 58.6776C54.4089 58.3843 54.3022 58.0476 54.2955 57.6676H55.2655C55.2989 57.9943 55.4322 58.2709 55.6655 58.4976C55.9055 58.7176 56.2522 58.8276 56.7055 58.8276C57.1389 58.8276 57.4789 58.7209 57.7255 58.5076C57.9789 58.2876 58.1055 58.0076 58.1055 57.6676C58.1055 57.4009 58.0322 57.1843 57.8855 57.0176C57.7389 56.8509 57.5555 56.7243 57.3355 56.6376C57.1155 56.5509 56.8189 56.4576 56.4455 56.3576C55.9855 56.2376 55.6155 56.1176 55.3355 55.9976C55.0622 55.8776 54.8255 55.6909 54.6255 55.4376C54.4322 55.1776 54.3355 54.8309 54.3355 54.3976C54.3355 54.0176 54.4322 53.6809 54.6255 53.3876C54.8189 53.0943 55.0889 52.8676 55.4355 52.7076C55.7889 52.5476 56.1922 52.4676 56.6455 52.4676C57.2989 52.4676 57.8322 52.6309 58.2455 52.9576C58.6655 53.2843 58.9022 53.7176 58.9555 54.2576H57.9555C57.9222 53.9909 57.7822 53.7576 57.5355 53.5576C57.2889 53.3509 56.9622 53.2476 56.5555 53.2476C56.1755 53.2476 55.8655 53.3476 55.6255 53.5476C55.3855 53.7409 55.2655 54.0143 55.2655 54.3676C55.2655 54.6209 55.3355 54.8276 55.4755 54.9876C55.6222 55.1476 55.7989 55.2709 56.0055 55.3576C56.2189 55.4376 56.5155 55.5309 56.8955 55.6376C57.3555 55.7643 57.7255 55.8909 58.0055 56.0176C58.2855 56.1376 58.5255 56.3276 58.7255 56.5876C58.9255 56.8409 59.0255 57.1876 59.0255 57.6276C59.0255 57.9676 58.9355 58.2876 58.7555 58.5876C58.5755 58.8876 58.3089 59.1309 57.9555 59.3176C57.6022 59.5043 57.1855 59.5976 56.7055 59.5976Z" fill="black"/>
<rect x="0.850586" y="144.57" width="35.8925" height="71.7851" transform="rotate(-90 0.850586 144.57)" fill="#F7F300" stroke="black"/>
</svg>
