<svg width="73" height="145" viewBox="0 0 73 145" fill="none" xmlns="http://www.w3.org/2000/svg">
<rect x="0.570129" y="0.635742" width="71.7851" height="143.57" fill="#C7E6CF" stroke="black"/>
<rect x="0.570129" y="36.5283" width="35.8925" height="71.7851" transform="rotate(-90 0.570129 36.5283)" fill="#88D0FF" stroke="black"/>
<path d="M8.38215 102.51C8.38215 101.83 8.53548 101.22 8.84215 100.68C9.14882 100.133 9.56548 99.7067 10.0921 99.4C10.6255 99.0933 11.2155 98.94 11.8621 98.94C12.6221 98.94 13.2855 99.1233 13.8521 99.49C14.4188 99.8567 14.8321 100.377 15.0921 101.05H14.0021C13.8088 100.63 13.5288 100.307 13.1621 100.08C12.8021 99.8533 12.3688 99.74 11.8621 99.74C11.3755 99.74 10.9388 99.8533 10.5521 100.08C10.1655 100.307 9.86215 100.63 9.64215 101.05C9.42215 101.463 9.31215 101.95 9.31215 102.51C9.31215 103.063 9.42215 103.55 9.64215 103.97C9.86215 104.383 10.1655 104.703 10.5521 104.93C10.9388 105.157 11.3755 105.27 11.8621 105.27C12.3688 105.27 12.8021 105.16 13.1621 104.94C13.5288 104.713 13.8088 104.39 14.0021 103.97H15.0921C14.8321 104.637 14.4188 105.153 13.8521 105.52C13.2855 105.88 12.6221 106.06 11.8621 106.06C11.2155 106.06 10.6255 105.91 10.0921 105.61C9.56548 105.303 9.14882 104.88 8.84215 104.34C8.53548 103.8 8.38215 103.19 8.38215 102.51ZM19.6068 106.07C18.9601 106.07 18.3701 105.92 17.8368 105.62C17.3034 105.313 16.8801 104.89 16.5668 104.35C16.2601 103.803 16.1068 103.19 16.1068 102.51C16.1068 101.83 16.2601 101.22 16.5668 100.68C16.8801 100.133 17.3034 99.71 17.8368 99.41C18.3701 99.1033 18.9601 98.95 19.6068 98.95C20.2601 98.95 20.8534 99.1033 21.3868 99.41C21.9201 99.71 22.3401 100.13 22.6468 100.67C22.9534 101.21 23.1068 101.823 23.1068 102.51C23.1068 103.197 22.9534 103.81 22.6468 104.35C22.3401 104.89 21.9201 105.313 21.3868 105.62C20.8534 105.92 20.2601 106.07 19.6068 106.07ZM19.6068 105.28C20.0934 105.28 20.5301 105.167 20.9168 104.94C21.3101 104.713 21.6168 104.39 21.8368 103.97C22.0634 103.55 22.1768 103.063 22.1768 102.51C22.1768 101.95 22.0634 101.463 21.8368 101.05C21.6168 100.63 21.3134 100.307 20.9268 100.08C20.5401 99.8533 20.1001 99.74 19.6068 99.74C19.1134 99.74 18.6734 99.8533 18.2868 100.08C17.9001 100.307 17.5934 100.63 17.3668 101.05C17.1468 101.463 17.0368 101.95 17.0368 102.51C17.0368 103.063 17.1468 103.55 17.3668 103.97C17.5934 104.39 17.9001 104.713 18.2868 104.94C18.6801 105.167 19.1201 105.28 19.6068 105.28ZM29.7881 106H28.8781L25.2181 100.45V106H24.3081V99.02H25.2181L28.8781 104.56V99.02H29.7881V106ZM36.8193 106H35.9093L32.2493 100.45V106H31.3393V99.02H32.2493L35.9093 104.56V99.02H36.8193V106ZM39.2806 99.77V102.1H41.8206V102.85H39.2806V105.25H42.1206V106H38.3706V99.02H42.1206V99.77H39.2806ZM43.1575 102.51C43.1575 101.83 43.3109 101.22 43.6175 100.68C43.9242 100.133 44.3409 99.7067 44.8675 99.4C45.4009 99.0933 45.9909 98.94 46.6375 98.94C47.3975 98.94 48.0609 99.1233 48.6275 99.49C49.1942 99.8567 49.6075 100.377 49.8675 101.05H48.7775C48.5842 100.63 48.3042 100.307 47.9375 100.08C47.5775 99.8533 47.1442 99.74 46.6375 99.74C46.1509 99.74 45.7142 99.8533 45.3275 100.08C44.9409 100.307 44.6375 100.63 44.4175 101.05C44.1975 101.463 44.0875 101.95 44.0875 102.51C44.0875 103.063 44.1975 103.55 44.4175 103.97C44.6375 104.383 44.9409 104.703 45.3275 104.93C45.7142 105.157 46.1509 105.27 46.6375 105.27C47.1442 105.27 47.5775 105.16 47.9375 104.94C48.3042 104.713 48.5842 104.39 48.7775 103.97H49.8675C49.6075 104.637 49.1942 105.153 48.6275 105.52C48.0609 105.88 47.3975 106.06 46.6375 106.06C45.9909 106.06 45.4009 105.91 44.8675 105.61C44.3409 105.303 43.9242 104.88 43.6175 104.34C43.3109 103.8 43.1575 103.19 43.1575 102.51ZM55.5121 99.03V99.77H53.6121V106H52.7021V99.77H50.7921V99.03H55.5121ZM57.5423 99.03V106H56.6323V99.03H57.5423ZM58.7532 102.51C58.7532 101.83 58.9066 101.22 59.2132 100.68C59.5199 100.133 59.9366 99.7067 60.4632 99.4C60.9966 99.0933 61.5866 98.94 62.2332 98.94C62.9932 98.94 63.6566 99.1233 64.2232 99.49C64.7899 99.8567 65.2032 100.377 65.4632 101.05H64.3732C64.1799 100.63 63.8999 100.307 63.5332 100.08C63.1732 99.8533 62.7399 99.74 62.2332 99.74C61.7466 99.74 61.3099 99.8533 60.9232 100.08C60.5366 100.307 60.2332 100.63 60.0132 101.05C59.7932 101.463 59.6832 101.95 59.6832 102.51C59.6832 103.063 59.7932 103.55 60.0132 103.97C60.2332 104.383 60.5366 104.703 60.9232 104.93C61.3099 105.157 61.7466 105.27 62.2332 105.27C62.7399 105.27 63.1732 105.16 63.5332 104.94C63.8999 104.713 64.1799 104.39 64.3732 103.97H65.4632C65.2032 104.637 64.7899 105.153 64.2232 105.52C63.6566 105.88 62.9932 106.06 62.2332 106.06C61.5866 106.06 60.9966 105.91 60.4632 105.61C59.9366 105.303 59.5199 104.88 59.2132 104.34C58.9066 103.8 58.7532 103.19 58.7532 102.51ZM23.1254 119.45H20.0854L19.5254 121H18.5654L21.0854 114.07H22.1354L24.6454 121H23.6854L23.1254 119.45ZM22.8654 118.71L21.6054 115.19L20.3454 118.71H22.8654ZM31.5036 114.03L28.8736 121H27.8236L25.1936 114.03H26.1636L28.3536 120.04L30.5436 114.03H31.5036ZM33.4114 114.77V117.1H35.9514V117.85H33.4114V120.25H36.2514V121H32.5014V114.02H36.2514V114.77H33.4114ZM43.1084 121H42.1984L38.5384 115.45V121H37.6284V114.02H38.5384L42.1984 119.56V114.02H43.1084V121ZM45.5496 114.03V118.44C45.5496 119.06 45.6996 119.52 45.9996 119.82C46.3063 120.12 46.7296 120.27 47.2696 120.27C47.803 120.27 48.2196 120.12 48.5196 119.82C48.8263 119.52 48.9796 119.06 48.9796 118.44V114.03H49.8896V118.43C49.8896 119.01 49.773 119.5 49.5396 119.9C49.3063 120.293 48.9896 120.587 48.5896 120.78C48.1963 120.973 47.753 121.07 47.2596 121.07C46.7663 121.07 46.3196 120.973 45.9196 120.78C45.5263 120.587 45.213 120.293 44.9796 119.9C44.753 119.5 44.6396 119.01 44.6396 118.43V114.03H45.5496ZM52.3177 114.77V117.1H54.8577V117.85H52.3177V120.25H55.1577V121H51.4077V114.02H55.1577V114.77H52.3177Z" fill="black"/>
</svg>
