<svg width="74" height="145" viewBox="0 0 74 145" fill="none" xmlns="http://www.w3.org/2000/svg">
<rect x="1.28052" y="0.635742" width="71.7851" height="143.57" fill="#C7E6CF" stroke="black"/>
<rect x="1.28052" y="36.5283" width="35.8925" height="71.7851" transform="rotate(-90 1.28052 36.5283)" fill="#BA6810" stroke="black"/>
<path d="M24.8684 102.41C25.1217 102.45 25.3517 102.553 25.5584 102.72C25.7717 102.887 25.9384 103.093 26.0584 103.34C26.1851 103.587 26.2484 103.85 26.2484 104.13C26.2484 104.483 26.1584 104.803 25.9784 105.09C25.7984 105.37 25.5351 105.593 25.1884 105.76C24.8484 105.92 24.4451 106 23.9784 106H21.3784V99.03H23.8784C24.3517 99.03 24.7551 99.11 25.0884 99.27C25.4217 99.4233 25.6717 99.6333 25.8384 99.9C26.0051 100.167 26.0884 100.467 26.0884 100.8C26.0884 101.213 25.9751 101.557 25.7484 101.83C25.5284 102.097 25.2351 102.29 24.8684 102.41ZM22.2884 102.04H23.8184C24.2451 102.04 24.5751 101.94 24.8084 101.74C25.0417 101.54 25.1584 101.263 25.1584 100.91C25.1584 100.557 25.0417 100.28 24.8084 100.08C24.5751 99.88 24.2384 99.78 23.7984 99.78H22.2884V102.04ZM23.8984 105.25C24.3517 105.25 24.7051 105.143 24.9584 104.93C25.2117 104.717 25.3384 104.42 25.3384 104.04C25.3384 103.653 25.2051 103.35 24.9384 103.13C24.6717 102.903 24.3151 102.79 23.8684 102.79H22.2884V105.25H23.8984ZM31.6312 104.45H28.5912L28.0312 106H27.0712L29.5912 99.07H30.6412L33.1512 106H32.1912L31.6312 104.45ZM31.3712 103.71L30.1112 100.19L28.8512 103.71H31.3712ZM35.1595 105.26H37.5995V106H34.2495V99.03H35.1595V105.26ZM42.8559 99.03V99.77H40.9559V106H40.0459V99.77H38.1359V99.03H42.8559ZM44.8861 99.03V106H43.9761V99.03H44.8861ZM46.097 102.51C46.097 101.83 46.2503 101.22 46.557 100.68C46.8637 100.133 47.2803 99.7067 47.807 99.4C48.3403 99.0933 48.9303 98.94 49.577 98.94C50.337 98.94 51.0003 99.1233 51.567 99.49C52.1337 99.8567 52.547 100.377 52.807 101.05H51.717C51.5237 100.63 51.2437 100.307 50.877 100.08C50.517 99.8533 50.0837 99.74 49.577 99.74C49.0903 99.74 48.6537 99.8533 48.267 100.08C47.8803 100.307 47.577 100.63 47.357 101.05C47.137 101.463 47.027 101.95 47.027 102.51C47.027 103.063 47.137 103.55 47.357 103.97C47.577 104.383 47.8803 104.703 48.267 104.93C48.6537 105.157 49.0903 105.27 49.577 105.27C50.0837 105.27 50.517 105.16 50.877 104.94C51.2437 104.713 51.5237 104.39 51.717 103.97H52.807C52.547 104.637 52.1337 105.153 51.567 105.52C51.0003 105.88 50.337 106.06 49.577 106.06C48.9303 106.06 48.3403 105.91 47.807 105.61C47.2803 105.303 46.8637 104.88 46.557 104.34C46.2503 103.8 46.097 103.19 46.097 102.51ZM23.1254 119.45H20.0854L19.5254 121H18.5654L21.0854 114.07H22.1354L24.6454 121H23.6854L23.1254 119.45ZM22.8654 118.71L21.6054 115.19L20.3454 118.71H22.8654ZM31.5036 114.03L28.8736 121H27.8236L25.1936 114.03H26.1636L28.3536 120.04L30.5436 114.03H31.5036ZM33.4114 114.77V117.1H35.9514V117.85H33.4114V120.25H36.2514V121H32.5014V114.02H36.2514V114.77H33.4114ZM43.1084 121H42.1984L38.5384 115.45V121H37.6284V114.02H38.5384L42.1984 119.56V114.02H43.1084V121ZM45.5496 114.03V118.44C45.5496 119.06 45.6996 119.52 45.9996 119.82C46.3063 120.12 46.7296 120.27 47.2696 120.27C47.803 120.27 48.2196 120.12 48.5196 119.82C48.8263 119.52 48.9796 119.06 48.9796 118.44V114.03H49.8896V118.43C49.8896 119.01 49.773 119.5 49.5396 119.9C49.3063 120.293 48.9896 120.587 48.5896 120.78C48.1963 120.973 47.753 121.07 47.2596 121.07C46.7663 121.07 46.3196 120.973 45.9196 120.78C45.5263 120.587 45.213 120.293 44.9796 119.9C44.753 119.5 44.6396 119.01 44.6396 118.43V114.03H45.5496ZM52.3177 114.77V117.1H54.8577V117.85H52.3177V120.25H55.1577V121H51.4077V114.02H55.1577V114.77H52.3177Z" fill="black"/>
</svg>
