<svg width="74" height="145" viewBox="0 0 74 145" fill="none" xmlns="http://www.w3.org/2000/svg">
<rect x="0.850586" y="0.635742" width="71.7851" height="143.57" fill="#C7E6CF" stroke="black"/>
<path d="M18.4826 99.08V106H17.5726V100.84L15.2726 106H14.6326L12.3226 100.83V106H11.4126V99.08H12.3926L14.9526 104.8L17.5126 99.08H18.4826ZM20.9359 99.77V102.1H23.4759V102.85H20.9359V105.25H23.7759V106H20.0259V99.02H23.7759V99.77H20.9359ZM27.3228 99.03C28.0828 99.03 28.7395 99.1733 29.2928 99.46C29.8528 99.74 30.2795 100.143 30.5728 100.67C30.8728 101.197 31.0228 101.817 31.0228 102.53C31.0228 103.243 30.8728 103.863 30.5728 104.39C30.2795 104.91 29.8528 105.31 29.2928 105.59C28.7395 105.863 28.0828 106 27.3228 106H25.1528V99.03H27.3228ZM27.3228 105.25C28.2228 105.25 28.9095 105.013 29.3828 104.54C29.8561 104.06 30.0928 103.39 30.0928 102.53C30.0928 101.663 29.8528 100.987 29.3728 100.5C28.8995 100.013 28.2161 99.77 27.3228 99.77H26.0628V105.25H27.3228ZM33.1331 99.03V106H32.2231V99.03H33.1331ZM38.9741 99.03V99.77H37.0741V106H36.1641V99.77H34.2541V99.03H38.9741ZM41.0042 99.77V102.1H43.5442V102.85H41.0042V105.25H43.8442V106H40.0942V99.02H43.8442V99.77H41.0042ZM48.8912 106L47.2312 103.15H46.1312V106H45.2212V99.03H47.4712C47.9978 99.03 48.4412 99.12 48.8012 99.3C49.1678 99.48 49.4412 99.7233 49.6212 100.03C49.8012 100.337 49.8912 100.687 49.8912 101.08C49.8912 101.56 49.7512 101.983 49.4712 102.35C49.1978 102.717 48.7845 102.96 48.2312 103.08L49.9812 106H48.8912ZM46.1312 102.42H47.4712C47.9645 102.42 48.3345 102.3 48.5812 102.06C48.8278 101.813 48.9512 101.487 48.9512 101.08C48.9512 100.667 48.8278 100.347 48.5812 100.12C48.3412 99.8933 47.9712 99.78 47.4712 99.78H46.1312V102.42ZM54.9752 106L53.3152 103.15H52.2152V106H51.3052V99.03H53.5552C54.0818 99.03 54.5252 99.12 54.8852 99.3C55.2518 99.48 55.5252 99.7233 55.7052 100.03C55.8852 100.337 55.9752 100.687 55.9752 101.08C55.9752 101.56 55.8352 101.983 55.5552 102.35C55.2818 102.717 54.8685 102.96 54.3152 103.08L56.0652 106H54.9752ZM52.2152 102.42H53.5552C54.0485 102.42 54.4185 102.3 54.6652 102.06C54.9118 101.813 55.0352 101.487 55.0352 101.08C55.0352 100.667 54.9118 100.347 54.6652 100.12C54.4252 99.8933 54.0552 99.78 53.5552 99.78H52.2152V102.42ZM61.5091 104.45H58.4691L57.9091 106H56.9491L59.4691 99.07H60.5191L63.0291 106H62.0691L61.5091 104.45ZM61.2491 103.71L59.9891 100.19L58.7291 103.71H61.2491ZM23.1254 119.45H20.0854L19.5254 121H18.5654L21.0854 114.07H22.1354L24.6454 121H23.6854L23.1254 119.45ZM22.8654 118.71L21.6054 115.19L20.3454 118.71H22.8654ZM31.5036 114.03L28.8736 121H27.8236L25.1936 114.03H26.1636L28.3536 120.04L30.5436 114.03H31.5036ZM33.4114 114.77V117.1H35.9514V117.85H33.4114V120.25H36.2514V121H32.5014V114.02H36.2514V114.77H33.4114ZM43.1084 121H42.1984L38.5384 115.45V121H37.6284V114.02H38.5384L42.1984 119.56V114.02H43.1084V121ZM45.5496 114.03V118.44C45.5496 119.06 45.6996 119.52 45.9996 119.82C46.3063 120.12 46.7296 120.27 47.2696 120.27C47.803 120.27 48.2196 120.12 48.5196 119.82C48.8263 119.52 48.9796 119.06 48.9796 118.44V114.03H49.8896V118.43C49.8896 119.01 49.773 119.5 49.5396 119.9C49.3063 120.293 48.9896 120.587 48.5896 120.78C48.1963 120.973 47.753 121.07 47.2596 121.07C46.7663 121.07 46.3196 120.973 45.9196 120.78C45.5263 120.587 45.213 120.293 44.9796 119.9C44.753 119.5 44.6396 119.01 44.6396 118.43V114.03H45.5496ZM52.3177 114.77V117.1H54.8577V117.85H52.3177V120.25H55.1577V121H51.4077V114.02H55.1577V114.77H52.3177Z" fill="black"/>
<rect x="0.850586" y="36.5283" width="35.8925" height="71.7851" transform="rotate(-90 0.850586 36.5283)" fill="#BA6810" stroke="black"/>
</svg>
