<svg width="145" height="74" viewBox="0 0 145 74" fill="none" xmlns="http://www.w3.org/2000/svg">
<rect x="144.206" y="0.925323" width="71.7851" height="143.57" transform="rotate(90 144.206 0.925323)" fill="#C7E6CF" stroke="black"/>
<path d="M60.5638 26.07C60.5638 26.65 60.3638 27.1333 59.9638 27.52C59.5705 27.9 58.9671 28.09 58.1538 28.09H56.8138V31H55.9038V24.03H58.1538C58.9405 24.03 59.5371 24.22 59.9438 24.6C60.3571 24.98 60.5638 25.47 60.5638 26.07ZM58.1538 27.34C58.6605 27.34 59.0338 27.23 59.2738 27.01C59.5138 26.79 59.6338 26.4767 59.6338 26.07C59.6338 25.21 59.1405 24.78 58.1538 24.78H56.8138V27.34H58.1538ZM62.6048 24.77V27.1H65.1448V27.85H62.6048V30.25H65.4448V31H61.6948V24.02H65.4448V24.77H62.6048ZM72.3018 31H71.3918L67.7318 25.45V31H66.8218V24.02H67.7318L71.3918 29.56V24.02H72.3018V31ZM79.333 31H78.423L74.763 25.45V31H73.853V24.02H74.763L78.423 29.56V24.02H79.333V31ZM83.0943 31.07C82.6343 31.07 82.2209 30.99 81.8543 30.83C81.4943 30.6633 81.2109 30.4367 81.0043 30.15C80.7976 29.8567 80.6909 29.52 80.6843 29.14H81.6543C81.6876 29.4667 81.8209 29.7433 82.0543 29.97C82.2943 30.19 82.6409 30.3 83.0943 30.3C83.5276 30.3 83.8676 30.1933 84.1143 29.98C84.3676 29.76 84.4943 29.48 84.4943 29.14C84.4943 28.8733 84.4209 28.6567 84.2743 28.49C84.1276 28.3233 83.9443 28.1967 83.7243 28.11C83.5043 28.0233 83.2076 27.93 82.8343 27.83C82.3743 27.71 82.0043 27.59 81.7243 27.47C81.4509 27.35 81.2143 27.1633 81.0143 26.91C80.8209 26.65 80.7243 26.3033 80.7243 25.87C80.7243 25.49 80.8209 25.1533 81.0143 24.86C81.2076 24.5667 81.4776 24.34 81.8243 24.18C82.1776 24.02 82.5809 23.94 83.0343 23.94C83.6876 23.94 84.2209 24.1033 84.6343 24.43C85.0543 24.7567 85.2909 25.19 85.3443 25.73H84.3443C84.3109 25.4633 84.1709 25.23 83.9243 25.03C83.6776 24.8233 83.3509 24.72 82.9443 24.72C82.5643 24.72 82.2543 24.82 82.0143 25.02C81.7743 25.2133 81.6543 25.4867 81.6543 25.84C81.6543 26.0933 81.7243 26.3 81.8643 26.46C82.0109 26.62 82.1876 26.7433 82.3943 26.83C82.6076 26.91 82.9043 27.0033 83.2843 27.11C83.7443 27.2367 84.1143 27.3633 84.3943 27.49C84.6743 27.61 84.9143 27.8 85.1143 28.06C85.3143 28.3133 85.4143 28.66 85.4143 29.1C85.4143 29.44 85.3243 29.76 85.1443 30.06C84.9643 30.36 84.6976 30.6033 84.3443 30.79C83.9909 30.9767 83.5743 31.07 83.0943 31.07ZM91.6334 24.03L89.3634 28.37V31H88.4534V28.37L86.1734 24.03H87.1834L88.9034 27.56L90.6234 24.03H91.6334ZM93.5032 30.26H95.9432V31H92.5932V24.03H93.5032V30.26ZM102.67 24.03L100.04 31H98.9896L96.3596 24.03H97.3296L99.5196 30.04L101.71 24.03H102.67ZM107.787 29.45H104.747L104.187 31H103.227L105.747 24.07H106.797L109.307 31H108.347L107.787 29.45ZM107.527 28.71L106.267 25.19L105.007 28.71H107.527ZM115.886 31H114.976L111.316 25.45V31H110.406V24.02H111.316L114.976 29.56V24.02H115.886V31ZM118.347 24.03V31H117.437V24.03H118.347ZM124.018 29.45H120.978L120.418 31H119.458L121.978 24.07H123.028L125.538 31H124.578L124.018 29.45ZM123.758 28.71L122.498 25.19L121.238 28.71H123.758ZM76.6254 44.45H73.5854L73.0254 46H72.0654L74.5854 39.07H75.6354L78.1454 46H77.1854L76.6254 44.45ZM76.3654 43.71L75.1054 40.19L73.8454 43.71H76.3654ZM85.0036 39.03L82.3736 46H81.3236L78.6936 39.03H79.6636L81.8536 45.04L84.0436 39.03H85.0036ZM86.9114 39.77V42.1H89.4514V42.85H86.9114V45.25H89.7514V46H86.0014V39.02H89.7514V39.77H86.9114ZM96.6084 46H95.6984L92.0384 40.45V46H91.1284V39.02H92.0384L95.6984 44.56V39.02H96.6084V46ZM99.0496 39.03V43.44C99.0496 44.06 99.1996 44.52 99.4996 44.82C99.8063 45.12 100.23 45.27 100.77 45.27C101.303 45.27 101.72 45.12 102.02 44.82C102.326 44.52 102.48 44.06 102.48 43.44V39.03H103.39V43.43C103.39 44.01 103.273 44.5 103.04 44.9C102.806 45.2933 102.49 45.5867 102.09 45.78C101.696 45.9733 101.253 46.07 100.76 46.07C100.266 46.07 99.8196 45.9733 99.4196 45.78C99.0263 45.5867 98.713 45.2933 98.4796 44.9C98.253 44.5 98.1396 44.01 98.1396 43.43V39.03H99.0496ZM105.818 39.77V42.1H108.358V42.85H105.818V45.25H108.658V46H104.908V39.02H108.658V39.77H105.818Z" fill="black"/>
<rect x="0.635742" y="0.925323" width="35.8925" height="71.7851" fill="#099127" stroke="black"/>
</svg>
