<svg width="73" height="146" viewBox="0 0 73 146" fill="none" xmlns="http://www.w3.org/2000/svg">
<rect x="0.495483" y="1" width="71.7851" height="143.57" fill="#C7E6CF" stroke="black"/>
<path d="M18.3629 42.9776H15.3229L14.7629 44.5276H13.8029L16.3229 37.5976H17.3729L19.8829 44.5276H18.9229L18.3629 42.9776ZM18.1029 42.2376L16.8429 38.7176L15.5829 42.2376H18.1029ZM25.2711 37.5576V38.2976H23.3711V44.5276H22.4611V38.2976H20.5511V37.5576H25.2711ZM27.3013 43.7876H29.7413V44.5276H26.3913V37.5576H27.3013V43.7876ZM34.8277 42.9776H31.7877L31.2277 44.5276H30.2677L32.7877 37.5976H33.8377L36.3477 44.5276H35.3877L34.8277 42.9776ZM34.5677 42.2376L33.3077 38.7176L32.0477 42.2376H34.5677ZM42.926 44.5276H42.016L38.356 38.9776V44.5276H37.446V37.5476H38.356L42.016 43.0876V37.5476H42.926V44.5276ZM48.7672 37.5576V38.2976H46.8672V44.5276H45.9572V38.2976H44.0472V37.5576H48.7672ZM50.7974 37.5576V44.5276H49.8874V37.5576H50.7974ZM52.0083 41.0376C52.0083 40.3576 52.1617 39.7476 52.4683 39.2076C52.775 38.6609 53.1917 38.2343 53.7183 37.9276C54.2517 37.6209 54.8417 37.4676 55.4883 37.4676C56.2483 37.4676 56.9117 37.6509 57.4783 38.0176C58.045 38.3843 58.4583 38.9043 58.7183 39.5776H57.6283C57.435 39.1576 57.155 38.8343 56.7883 38.6076C56.4283 38.3809 55.995 38.2676 55.4883 38.2676C55.0017 38.2676 54.565 38.3809 54.1783 38.6076C53.7917 38.8343 53.4883 39.1576 53.2683 39.5776C53.0483 39.9909 52.9383 40.4776 52.9383 41.0376C52.9383 41.5909 53.0483 42.0776 53.2683 42.4976C53.4883 42.9109 53.7917 43.2309 54.1783 43.4576C54.565 43.6843 55.0017 43.7976 55.4883 43.7976C55.995 43.7976 56.4283 43.6876 56.7883 43.4676C57.155 43.2409 57.435 42.9176 57.6283 42.4976H58.7183C58.4583 43.1643 58.045 43.6809 57.4783 44.0476C56.9117 44.4076 56.2483 44.5876 55.4883 44.5876C54.8417 44.5876 54.2517 44.4376 53.7183 44.1376C53.1917 43.8309 52.775 43.4076 52.4683 42.8676C52.1617 42.3276 52.0083 41.7176 52.0083 41.0376ZM22.5133 57.9776H19.4733L18.9133 59.5276H17.9533L20.4733 52.5976H21.5233L24.0333 59.5276H23.0733L22.5133 57.9776ZM22.2533 57.2376L20.9933 53.7176L19.7333 57.2376H22.2533ZM30.8915 52.5576L28.2615 59.5276H27.2115L24.5815 52.5576H25.5515L27.7415 58.5676L29.9315 52.5576H30.8915ZM32.7993 53.2976V55.6276H35.3393V56.3776H32.7993V58.7776H35.6393V59.5276H31.8893V52.5476H35.6393V53.2976H32.7993ZM42.4963 59.5276H41.5863L37.9263 53.9776V59.5276H37.0163V52.5476H37.9263L41.5863 58.0876V52.5476H42.4963V59.5276ZM44.9375 52.5576V56.9676C44.9375 57.5876 45.0875 58.0476 45.3875 58.3476C45.6942 58.6476 46.1175 58.7976 46.6576 58.7976C47.1909 58.7976 47.6075 58.6476 47.9076 58.3476C48.2142 58.0476 48.3675 57.5876 48.3675 56.9676V52.5576H49.2775V56.9576C49.2775 57.5376 49.1609 58.0276 48.9275 58.4276C48.6942 58.8209 48.3776 59.1143 47.9776 59.3076C47.5842 59.5009 47.1409 59.5976 46.6475 59.5976C46.1542 59.5976 45.7075 59.5009 45.3075 59.3076C44.9142 59.1143 44.6009 58.8209 44.3675 58.4276C44.1409 58.0276 44.0275 57.5376 44.0275 56.9576V52.5576H44.9375ZM51.7056 53.2976V55.6276H54.2456V56.3776H51.7056V58.7776H54.5456V59.5276H50.7956V52.5476H54.5456V53.2976H51.7056Z" fill="black"/>
<rect x="0.495483" y="144.57" width="35.8925" height="71.7851" transform="rotate(-90 0.495483 144.57)" fill="#F7F300" stroke="black"/>
</svg>
