<svg width="146" height="74" viewBox="0 0 146 74" fill="none" xmlns="http://www.w3.org/2000/svg">
<rect x="144.57" y="1" width="71.7851" height="143.57" transform="rotate(90 144.57 1)" fill="#C7E6CF" stroke="black"/>
<rect x="108.678" y="1" width="35.8925" height="71.7851" fill="#F7A900" stroke="black"/>
<path d="M34.0395 24.0979V24.8379H32.1395V31.0679H31.2295V24.8379H29.3195V24.0979H34.0395ZM36.0696 24.8379V27.1679H38.6096V27.9179H36.0696V30.3179H38.9096V31.0679H35.1596V24.0879H38.9096V24.8379H36.0696ZM45.7666 31.0679H44.8566L41.1966 25.5179V31.0679H40.2866V24.0879H41.1966L44.8566 29.6279V24.0879H45.7666V31.0679ZM52.7978 31.0679H51.8878L48.2278 25.5179V31.0679H47.3178V24.0879H48.2278L51.8878 29.6279V24.0879H52.7978V31.0679ZM55.2591 24.8379V27.1679H57.7991V27.9179H55.2591V30.3179H58.0991V31.0679H54.3491V24.0879H58.0991V24.8379H55.2591ZM61.686 31.1379C61.226 31.1379 60.8127 31.0579 60.446 30.8979C60.086 30.7312 59.8027 30.5046 59.596 30.2179C59.3893 29.9246 59.2827 29.5879 59.276 29.2079H60.246C60.2793 29.5346 60.4127 29.8112 60.646 30.0379C60.886 30.2579 61.2327 30.3679 61.686 30.3679C62.1193 30.3679 62.4593 30.2612 62.706 30.0479C62.9594 29.8279 63.086 29.5479 63.086 29.2079C63.086 28.9412 63.0127 28.7246 62.866 28.5579C62.7194 28.3912 62.536 28.2646 62.316 28.1779C62.096 28.0912 61.7993 27.9979 61.426 27.8979C60.966 27.7779 60.596 27.6579 60.316 27.5379C60.0427 27.4179 59.806 27.2312 59.606 26.9779C59.4127 26.7179 59.316 26.3712 59.316 25.9379C59.316 25.5579 59.4127 25.2212 59.606 24.9279C59.7993 24.6346 60.0693 24.4079 60.416 24.2479C60.7693 24.0879 61.1727 24.0079 61.626 24.0079C62.2794 24.0079 62.8127 24.1712 63.226 24.4979C63.646 24.8246 63.8827 25.2579 63.936 25.7979H62.936C62.9027 25.5312 62.7627 25.2979 62.516 25.0979C62.2693 24.8912 61.9427 24.7879 61.536 24.7879C61.156 24.7879 60.846 24.8879 60.606 25.0879C60.366 25.2812 60.246 25.5546 60.246 25.9079C60.246 26.1612 60.316 26.3679 60.456 26.5279C60.6027 26.6879 60.7794 26.8112 60.986 26.8979C61.1994 26.9779 61.496 27.0712 61.876 27.1779C62.336 27.3046 62.706 27.4312 62.986 27.5579C63.266 27.6779 63.506 27.8679 63.706 28.1279C63.906 28.3812 64.006 28.7279 64.006 29.1679C64.006 29.5079 63.916 29.8279 63.736 30.1279C63.556 30.4279 63.2893 30.6712 62.936 30.8579C62.5827 31.0446 62.166 31.1379 61.686 31.1379ZM67.5552 31.1379C67.0952 31.1379 66.6818 31.0579 66.3152 30.8979C65.9552 30.7312 65.6718 30.5046 65.4652 30.2179C65.2585 29.9246 65.1518 29.5879 65.1452 29.2079H66.1152C66.1485 29.5346 66.2818 29.8112 66.5152 30.0379C66.7552 30.2579 67.1018 30.3679 67.5552 30.3679C67.9885 30.3679 68.3285 30.2612 68.5752 30.0479C68.8285 29.8279 68.9552 29.5479 68.9552 29.2079C68.9552 28.9412 68.8818 28.7246 68.7352 28.5579C68.5885 28.3912 68.4052 28.2646 68.1852 28.1779C67.9652 28.0912 67.6685 27.9979 67.2952 27.8979C66.8352 27.7779 66.4652 27.6579 66.1852 27.5379C65.9118 27.4179 65.6752 27.2312 65.4752 26.9779C65.2818 26.7179 65.1852 26.3712 65.1852 25.9379C65.1852 25.5579 65.2818 25.2212 65.4752 24.9279C65.6685 24.6346 65.9385 24.4079 66.2852 24.2479C66.6385 24.0879 67.0418 24.0079 67.4952 24.0079C68.1485 24.0079 68.6818 24.1712 69.0952 24.4979C69.5152 24.8246 69.7518 25.2579 69.8052 25.7979H68.8052C68.7718 25.5312 68.6318 25.2979 68.3852 25.0979C68.1385 24.8912 67.8118 24.7879 67.4052 24.7879C67.0252 24.7879 66.7152 24.8879 66.4752 25.0879C66.2352 25.2812 66.1152 25.5546 66.1152 25.9079C66.1152 26.1612 66.1852 26.3679 66.3252 26.5279C66.4718 26.6879 66.6485 26.8112 66.8552 26.8979C67.0685 26.9779 67.3652 27.0712 67.7452 27.1779C68.2052 27.3046 68.5752 27.4312 68.8552 27.5579C69.1352 27.6779 69.3752 27.8679 69.5752 28.1279C69.7752 28.3812 69.8752 28.7279 69.8752 29.1679C69.8752 29.5079 69.7852 29.8279 69.6052 30.1279C69.4252 30.4279 69.1585 30.6712 68.8052 30.8579C68.4518 31.0446 68.0352 31.1379 67.5552 31.1379ZM72.1243 24.8379V27.1679H74.6643V27.9179H72.1243V30.3179H74.9643V31.0679H71.2143V24.0879H74.9643V24.8379H72.1243ZM77.2513 24.8379V27.1679H79.7913V27.9179H77.2513V30.3179H80.0913V31.0679H76.3413V24.0879H80.0913V24.8379H77.2513ZM40.9642 44.5179H37.9242L37.3642 46.0679H36.4042L38.9242 39.1379H39.9742L42.4842 46.0679H41.5242L40.9642 44.5179ZM40.7042 43.7779L39.4442 40.2579L38.1842 43.7779H40.7042ZM49.3425 39.0979L46.7125 46.0679H45.6625L43.0325 39.0979H44.0025L46.1925 45.1079L48.3825 39.0979H49.3425ZM51.2503 39.8379V42.1679H53.7903V42.9179H51.2503V45.3179H54.0903V46.0679H50.3403V39.0879H54.0903V39.8379H51.2503ZM60.9472 46.0679H60.0372L56.3772 40.5179V46.0679H55.4672V39.0879H56.3772L60.0372 44.6279V39.0879H60.9472V46.0679ZM63.3885 39.0979V43.5079C63.3885 44.1279 63.5385 44.5879 63.8385 44.8879C64.1451 45.1879 64.5685 45.3379 65.1085 45.3379C65.6418 45.3379 66.0585 45.1879 66.3585 44.8879C66.6651 44.5879 66.8185 44.1279 66.8185 43.5079V39.0979H67.7285V43.4979C67.7285 44.0779 67.6118 44.5679 67.3785 44.9679C67.1451 45.3612 66.8285 45.6546 66.4285 45.8479C66.0351 46.0412 65.5918 46.1379 65.0985 46.1379C64.6051 46.1379 64.1585 46.0412 63.7585 45.8479C63.3651 45.6546 63.0518 45.3612 62.8185 44.9679C62.5918 44.5679 62.4785 44.0779 62.4785 43.4979V39.0979H63.3885ZM70.1565 39.8379V42.1679H72.6965V42.9179H70.1565V45.3179H72.9965V46.0679H69.2465V39.0879H72.9965V39.8379H70.1565Z" fill="black"/>
</svg>
