<svg width="74" height="146" viewBox="0 0 74 146" fill="none" xmlns="http://www.w3.org/2000/svg">
<rect x="1.28052" y="1" width="71.7851" height="143.57" fill="#C7E6CF" stroke="black"/>
<path d="M21.0517 37.5576L18.4217 44.5276H17.3717L14.7417 37.5576H15.7117L17.9017 43.5676L20.0917 37.5576H21.0517ZM22.9595 38.2976V40.6276H25.4995V41.3776H22.9595V43.7776H25.7995V44.5276H22.0495V37.5476H25.7995V38.2976H22.9595ZM32.6565 44.5276H31.7465L28.0865 38.9776V44.5276H27.1765V37.5476H28.0865L31.7465 43.0876V37.5476H32.6565V44.5276ZM38.4977 37.5576V38.2976H36.5977V44.5276H35.6877V38.2976H33.7777V37.5576H38.4977ZM45.0979 44.5276H44.1879L40.5279 38.9776V44.5276H39.6179V37.5476H40.5279L44.1879 43.0876V37.5476H45.0979V44.5276ZM49.8091 44.5976C49.1624 44.5976 48.5724 44.4476 48.0391 44.1476C47.5058 43.8409 47.0824 43.4176 46.7691 42.8776C46.4624 42.3309 46.3091 41.7176 46.3091 41.0376C46.3091 40.3576 46.4624 39.7476 46.7691 39.2076C47.0824 38.6609 47.5058 38.2376 48.0391 37.9376C48.5724 37.6309 49.1624 37.4776 49.8091 37.4776C50.4624 37.4776 51.0558 37.6309 51.5891 37.9376C52.1224 38.2376 52.5424 38.6576 52.8491 39.1976C53.1558 39.7376 53.3091 40.3509 53.3091 41.0376C53.3091 41.7243 53.1558 42.3376 52.8491 42.8776C52.5424 43.4176 52.1224 43.8409 51.5891 44.1476C51.0558 44.4476 50.4624 44.5976 49.8091 44.5976ZM49.8091 43.8076C50.2958 43.8076 50.7324 43.6943 51.1191 43.4676C51.5124 43.2409 51.8191 42.9176 52.0391 42.4976C52.2658 42.0776 52.3791 41.5909 52.3791 41.0376C52.3791 40.4776 52.2658 39.9909 52.0391 39.5776C51.8191 39.1576 51.5158 38.8343 51.1291 38.6076C50.7424 38.3809 50.3024 38.2676 49.8091 38.2676C49.3158 38.2676 48.8758 38.3809 48.4891 38.6076C48.1024 38.8343 47.7958 39.1576 47.5691 39.5776C47.3491 39.9909 47.2391 40.4776 47.2391 41.0376C47.2391 41.5909 47.3491 42.0776 47.5691 42.4976C47.7958 42.9176 48.1024 43.2409 48.4891 43.4676C48.8824 43.6943 49.3224 43.8076 49.8091 43.8076ZM58.1804 44.5276L56.5204 41.6776H55.4204V44.5276H54.5104V37.5576H56.7604C57.2871 37.5576 57.7304 37.6476 58.0904 37.8276C58.4571 38.0076 58.7304 38.2509 58.9104 38.5576C59.0904 38.8643 59.1804 39.2143 59.1804 39.6076C59.1804 40.0876 59.0404 40.5109 58.7604 40.8776C58.4871 41.2443 58.0738 41.4876 57.5204 41.6076L59.2704 44.5276H58.1804ZM55.4204 40.9476H56.7604C57.2538 40.9476 57.6238 40.8276 57.8704 40.5876C58.1171 40.3409 58.2404 40.0143 58.2404 39.6076C58.2404 39.1943 58.1171 38.8743 57.8704 38.6476C57.6304 38.4209 57.2604 38.3076 56.7604 38.3076H55.4204V40.9476ZM23.2984 57.9776H20.2584L19.6984 59.5276H18.7384L21.2584 52.5976H22.3084L24.8184 59.5276H23.8584L23.2984 57.9776ZM23.0384 57.2376L21.7784 53.7176L20.5184 57.2376H23.0384ZM31.6767 52.5576L29.0467 59.5276H27.9967L25.3667 52.5576H26.3367L28.5267 58.5676L30.7167 52.5576H31.6767ZM33.5845 53.2976V55.6276H36.1245V56.3776H33.5845V58.7776H36.4245V59.5276H32.6745V52.5476H36.4245V53.2976H33.5845ZM43.2815 59.5276H42.3715L38.7115 53.9776V59.5276H37.8015V52.5476H38.7115L42.3715 58.0876V52.5476H43.2815V59.5276ZM45.7227 52.5576V56.9676C45.7227 57.5876 45.8727 58.0476 46.1727 58.3476C46.4794 58.6476 46.9027 58.7976 47.4427 58.7976C47.976 58.7976 48.3927 58.6476 48.6927 58.3476C48.9994 58.0476 49.1527 57.5876 49.1527 56.9676V52.5576H50.0627V56.9576C50.0627 57.5376 49.946 58.0276 49.7127 58.4276C49.4794 58.8209 49.1627 59.1143 48.7627 59.3076C48.3694 59.5009 47.926 59.5976 47.4327 59.5976C46.9394 59.5976 46.4927 59.5009 46.0927 59.3076C45.6994 59.1143 45.386 58.8209 45.1527 58.4276C44.926 58.0276 44.8127 57.5376 44.8127 56.9576V52.5576H45.7227ZM52.4908 53.2976V55.6276H55.0308V56.3776H52.4908V58.7776H55.3308V59.5276H51.5808V52.5476H55.3308V53.2976H52.4908Z" fill="black"/>
<rect x="1.28052" y="144.57" width="35.8925" height="71.7851" transform="rotate(-90 1.28052 144.57)" fill="#F7F300" stroke="black"/>
</svg>
