<svg width="73" height="145" viewBox="0 0 73 145" fill="none" xmlns="http://www.w3.org/2000/svg">
<rect x="0.495483" y="0.635681" width="71.7851" height="143.57" fill="#C7E6CF" stroke="black"/>
<rect x="18.2924" y="46.0622" width="24.7978" height="24.7978" transform="rotate(-45 18.2924 46.0622)" fill="#C7E6CF" stroke="black"/>
<rect x="25.8787" y="46.2393" width="14.3198" height="14.3198" transform="rotate(-45 25.8787 46.2393)" fill="black" stroke="black"/>
<path d="M19.2196 98.8836V105.854H18.3096V98.8836H19.2196ZM26.2505 105.854H25.3405L21.6805 100.304V105.854H20.7705V98.8736H21.6805L25.3405 104.414V98.8736H26.2505V105.854ZM27.4617 102.364C27.4617 101.684 27.6151 101.074 27.9217 100.534C28.2284 99.9869 28.6451 99.5602 29.1717 99.2536C29.7051 98.9469 30.2951 98.7936 30.9417 98.7936C31.7017 98.7936 32.3651 98.9769 32.9317 99.3436C33.4984 99.7102 33.9117 100.23 34.1717 100.904H33.0817C32.8884 100.484 32.6084 100.16 32.2417 99.9336C31.8817 99.7069 31.4484 99.5936 30.9417 99.5936C30.4551 99.5936 30.0184 99.7069 29.6317 99.9336C29.2451 100.16 28.9417 100.484 28.7217 100.904C28.5017 101.317 28.3917 101.804 28.3917 102.364C28.3917 102.917 28.5017 103.404 28.7217 103.824C28.9417 104.237 29.2451 104.557 29.6317 104.784C30.0184 105.01 30.4551 105.124 30.9417 105.124C31.4484 105.124 31.8817 105.014 32.2417 104.794C32.6084 104.567 32.8884 104.244 33.0817 103.824H34.1717C33.9117 104.49 33.4984 105.007 32.9317 105.374C32.3651 105.734 31.7017 105.914 30.9417 105.914C30.2951 105.914 29.7051 105.764 29.1717 105.464C28.6451 105.157 28.2284 104.734 27.9217 104.194C27.6151 103.654 27.4617 103.044 27.4617 102.364ZM38.6863 105.924C38.0397 105.924 37.4497 105.774 36.9163 105.474C36.383 105.167 35.9597 104.744 35.6463 104.204C35.3397 103.657 35.1863 103.044 35.1863 102.364C35.1863 101.684 35.3397 101.074 35.6463 100.534C35.9597 99.9869 36.383 99.5636 36.9163 99.2636C37.4497 98.9569 38.0397 98.8036 38.6863 98.8036C39.3397 98.8036 39.933 98.9569 40.4663 99.2636C40.9997 99.5636 41.4197 99.9836 41.7263 100.524C42.033 101.064 42.1863 101.677 42.1863 102.364C42.1863 103.05 42.033 103.664 41.7263 104.204C41.4197 104.744 40.9997 105.167 40.4663 105.474C39.933 105.774 39.3397 105.924 38.6863 105.924ZM38.6863 105.134C39.173 105.134 39.6097 105.02 39.9963 104.794C40.3897 104.567 40.6963 104.244 40.9163 103.824C41.143 103.404 41.2563 102.917 41.2563 102.364C41.2563 101.804 41.143 101.317 40.9163 100.904C40.6963 100.484 40.393 100.16 40.0063 99.9336C39.6197 99.7069 39.1797 99.5936 38.6863 99.5936C38.193 99.5936 37.753 99.7069 37.3663 99.9336C36.9797 100.16 36.673 100.484 36.4463 100.904C36.2263 101.317 36.1163 101.804 36.1163 102.364C36.1163 102.917 36.2263 103.404 36.4463 103.824C36.673 104.244 36.9797 104.567 37.3663 104.794C37.7597 105.02 38.1997 105.134 38.6863 105.134ZM50.4577 98.9336V105.854H49.5477V100.694L47.2477 105.854H46.6077L44.2977 100.684V105.854H43.3877V98.9336H44.3677L46.9277 104.654L49.4877 98.9336H50.4577ZM52.911 99.6236V101.954H55.451V102.704H52.911V105.104H55.751V105.854H52.001V98.8736H55.751V99.6236H52.911ZM32.829 113.884V114.624H30.929V120.854H30.019V114.624H28.109V113.884H32.829ZM38.0692 119.304H35.0292L34.4692 120.854H33.5092L36.0292 113.924H37.0792L39.5892 120.854H38.6292L38.0692 119.304ZM37.8092 118.564L36.5492 115.044L35.2892 118.564H37.8092ZM43.5375 117.374L45.6775 120.854H44.6475L42.9775 118.134L41.3875 120.854H40.3775L42.5075 117.374L40.3675 113.884H41.3875L43.0675 116.614L44.6675 113.884H45.6875L43.5375 117.374Z" fill="black"/>
</svg>
