<svg width="73" height="146" viewBox="0 0 73 146" fill="none" xmlns="http://www.w3.org/2000/svg">
<rect x="0.570129" y="1" width="71.7851" height="143.57" fill="#C7E6CF" stroke="black"/>
<path d="M16.0859 44.5276L13.2159 41.3476V44.5276H12.3059V37.5576H13.2159V40.7876L16.0959 37.5576H17.2459L14.0859 41.0476L17.2759 44.5276H16.0859ZM19.2022 38.2976V40.6276H21.7422V41.3776H19.2022V43.7776H22.0422V44.5276H18.2922V37.5476H22.0422V38.2976H19.2022ZM28.8992 44.5276H27.9892L24.3292 38.9776V44.5276H23.4192V37.5476H24.3292L27.9892 43.0876V37.5476H28.8992V44.5276ZM34.7404 37.5576V38.2976H32.8404V44.5276H31.9304V38.2976H30.0204V37.5576H34.7404ZM36.7506 37.5576V41.9676C36.7506 42.5876 36.9006 43.0476 37.2006 43.3476C37.5073 43.6476 37.9306 43.7976 38.4706 43.7976C39.0039 43.7976 39.4206 43.6476 39.7206 43.3476C40.0273 43.0476 40.1806 42.5876 40.1806 41.9676V37.5576H41.0906V41.9576C41.0906 42.5376 40.9739 43.0276 40.7406 43.4276C40.5073 43.8209 40.1906 44.1143 39.7906 44.3076C39.3973 44.5009 38.9539 44.5976 38.4606 44.5976C37.9673 44.5976 37.5206 44.5009 37.1206 44.3076C36.7273 44.1143 36.4139 43.8209 36.1806 43.4276C35.9539 43.0276 35.8406 42.5376 35.8406 41.9576V37.5576H36.7506ZM42.2686 41.0376C42.2686 40.3576 42.422 39.7476 42.7286 39.2076C43.0353 38.6609 43.452 38.2343 43.9786 37.9276C44.512 37.6209 45.102 37.4676 45.7486 37.4676C46.5086 37.4676 47.172 37.6509 47.7386 38.0176C48.3053 38.3843 48.7186 38.9043 48.9786 39.5776H47.8886C47.6953 39.1576 47.4153 38.8343 47.0486 38.6076C46.6886 38.3809 46.2553 38.2676 45.7486 38.2676C45.262 38.2676 44.8253 38.3809 44.4386 38.6076C44.052 38.8343 43.7486 39.1576 43.5286 39.5776C43.3086 39.9909 43.1986 40.4776 43.1986 41.0376C43.1986 41.5909 43.3086 42.0776 43.5286 42.4976C43.7486 42.9109 44.052 43.2309 44.4386 43.4576C44.8253 43.6843 45.262 43.7976 45.7486 43.7976C46.2553 43.7976 46.6886 43.6876 47.0486 43.4676C47.4153 43.2409 47.6953 42.9176 47.8886 42.4976H48.9786C48.7186 43.1643 48.3053 43.6809 47.7386 44.0476C47.172 44.4076 46.5086 44.5876 45.7486 44.5876C45.102 44.5876 44.512 44.4376 43.9786 44.1376C43.452 43.8309 43.0353 43.4076 42.7286 42.8676C42.422 42.3276 42.2686 41.7176 42.2686 41.0376ZM54.1133 44.5276L51.2433 41.3476V44.5276H50.3333V37.5576H51.2433V40.7876L54.1233 37.5576H55.2733L52.1133 41.0476L55.3033 44.5276H54.1133ZM61.1996 37.5576L58.9296 41.8976V44.5276H58.0196V41.8976L55.7396 37.5576H56.7496L58.4696 41.0876L60.1896 37.5576H61.1996ZM22.588 57.9776H19.548L18.988 59.5276H18.028L20.548 52.5976H21.598L24.108 59.5276H23.148L22.588 57.9776ZM22.328 57.2376L21.068 53.7176L19.808 57.2376H22.328ZM30.9663 52.5576L28.3363 59.5276H27.2863L24.6563 52.5576H25.6263L27.8163 58.5676L30.0063 52.5576H30.9663ZM32.8741 53.2976V55.6276H35.4141V56.3776H32.8741V58.7776H35.7141V59.5276H31.9641V52.5476H35.7141V53.2976H32.8741ZM42.5711 59.5276H41.6611L38.0011 53.9776V59.5276H37.0911V52.5476H38.0011L41.6611 58.0876V52.5476H42.5711V59.5276ZM45.0123 52.5576V56.9676C45.0123 57.5876 45.1623 58.0476 45.4623 58.3476C45.769 58.6476 46.1923 58.7976 46.7323 58.7976C47.2657 58.7976 47.6823 58.6476 47.9823 58.3476C48.289 58.0476 48.4423 57.5876 48.4423 56.9676V52.5576H49.3523V56.9576C49.3523 57.5376 49.2357 58.0276 49.0023 58.4276C48.769 58.8209 48.4523 59.1143 48.0523 59.3076C47.659 59.5009 47.2157 59.5976 46.7223 59.5976C46.229 59.5976 45.7823 59.5009 45.3823 59.3076C44.989 59.1143 44.6757 58.8209 44.4423 58.4276C44.2157 58.0276 44.1023 57.5376 44.1023 56.9576V52.5576H45.0123ZM51.7804 53.2976V55.6276H54.3204V56.3776H51.7804V58.7776H54.6204V59.5276H50.8704V52.5476H54.6204V53.2976H51.7804Z" fill="black"/>
<rect x="0.570129" y="144.57" width="35.8925" height="71.7851" transform="rotate(-90 0.570129 144.57)" fill="#F70000" stroke="black"/>
</svg>
